<?xml version="1.0" encoding="UTF-8" standalone="no"?>
<!DOCTYPE svg PUBLIC "-//W3C//DTD SVG 1.1//EN"
 "http://www.w3.org/Graphics/SVG/1.1/DTD/svg11.dtd">
<!-- Generated by graphviz version 13.1.1 (20250719.2154)
 -->
<!-- Title: G Pages: 1 -->
<svg width="155pt" height="107pt"
 viewBox="0.00 0.00 155.00 107.00" xmlns="http://www.w3.org/2000/svg" xmlns:xlink="http://www.w3.org/1999/xlink">
<g id="graph0" class="graph" transform="scale(1 1) rotate(0) translate(4 103)">
<title>G</title>
<polygon fill="white" stroke="none" points="-4,4 -4,-103 151.25,-103 151.25,4 -4,4"/>
<!-- node0x7b8d7b7e01f0 -->
<g id="node1" class="node">
<title>node0x7b8d7b7e01f0</title>
<path fill="#66ccff" stroke="black" d="M12,-0.5C12,-0.5 135.25,-0.5 135.25,-0.5 141.25,-0.5 147.25,-6.5 147.25,-12.5 147.25,-12.5 147.25,-86.5 147.25,-86.5 147.25,-92.5 141.25,-98.5 135.25,-98.5 135.25,-98.5 12,-98.5 12,-98.5 6,-98.5 0,-92.5 0,-86.5 0,-86.5 0,-12.5 0,-12.5 0,-6.5 6,-0.5 12,-0.5"/>
<text xml:space="preserve" text-anchor="middle" x="73.62" y="-81.2" font-family="Times,serif" font-size="14.00">&quot;животное&quot;</text>
<polyline fill="none" stroke="black" points="0,-74 147.25,-74"/>
<text xml:space="preserve" text-anchor="middle" x="73.62" y="-56.7" font-family="Times,serif" font-size="14.00">ptr = [0x7b8d7b7e01f0]</text>
<polyline fill="none" stroke="black" points="0,-49.5 147.25,-49.5"/>
<text xml:space="preserve" text-anchor="middle" x="73.62" y="-32.2" font-family="Times,serif" font-size="14.00">left = [(nil)]</text>
<polyline fill="none" stroke="black" points="0,-25 147.25,-25"/>
<text xml:space="preserve" text-anchor="middle" x="73.62" y="-7.7" font-family="Times,serif" font-size="14.00">right = [(nil)]</text>
</g>
</g>
</svg>
