<?xml version="1.0" encoding="UTF-8" standalone="no"?>
<!DOCTYPE svg PUBLIC "-//W3C//DTD SVG 1.1//EN"
 "http://www.w3.org/Graphics/SVG/1.1/DTD/svg11.dtd">
<!-- Generated by graphviz version 13.1.1 (20250719.2154)
 -->
<!-- Title: G Pages: 1 -->
<svg width="326pt" height="259pt"
 viewBox="0.00 0.00 326.00 259.00" xmlns="http://www.w3.org/2000/svg" xmlns:xlink="http://www.w3.org/1999/xlink">
<g id="graph0" class="graph" transform="scale(1 1) rotate(0) translate(4 254.5)">
<title>G</title>
<polygon fill="white" stroke="none" points="-4,4 -4,-254.5 321.5,-254.5 321.5,4 -4,4"/>
<!-- node0x7b94071e0250 -->
<g id="node1" class="node">
<title>node0x7b94071e0250</title>
<path fill="#66ccff" stroke="black" d="M90.75,-152C90.75,-152 226.75,-152 226.75,-152 232.75,-152 238.75,-158 238.75,-164 238.75,-164 238.75,-238 238.75,-238 238.75,-244 232.75,-250 226.75,-250 226.75,-250 90.75,-250 90.75,-250 84.75,-250 78.75,-244 78.75,-238 78.75,-238 78.75,-164 78.75,-164 78.75,-158 84.75,-152 90.75,-152"/>
<text xml:space="preserve" text-anchor="middle" x="158.75" y="-232.7" font-family="Times,serif" font-size="14.00">&quot;ловит мышей&quot;</text>
<polyline fill="none" stroke="black" points="78.75,-225.5 238.75,-225.5"/>
<text xml:space="preserve" text-anchor="middle" x="158.75" y="-208.2" font-family="Times,serif" font-size="14.00">ptr = [0x7b94071e0250]</text>
<polyline fill="none" stroke="black" points="78.75,-201 238.75,-201"/>
<text xml:space="preserve" text-anchor="middle" x="158.75" y="-183.7" font-family="Times,serif" font-size="14.00">left = [0x7b94071e0280]</text>
<polyline fill="none" stroke="black" points="78.75,-176.5 238.75,-176.5"/>
<text xml:space="preserve" text-anchor="middle" x="158.75" y="-159.2" font-family="Times,serif" font-size="14.00">right = [0x7b94071e02b0]</text>
</g>
<!-- node0x7b94071e0280 -->
<g id="node2" class="node">
<title>node0x7b94071e0280</title>
<path fill="#66ccff" stroke="black" d="M12,-0.5C12,-0.5 137.5,-0.5 137.5,-0.5 143.5,-0.5 149.5,-6.5 149.5,-12.5 149.5,-12.5 149.5,-86.5 149.5,-86.5 149.5,-92.5 143.5,-98.5 137.5,-98.5 137.5,-98.5 12,-98.5 12,-98.5 6,-98.5 0,-92.5 0,-86.5 0,-86.5 0,-12.5 0,-12.5 0,-6.5 6,-0.5 12,-0.5"/>
<text xml:space="preserve" text-anchor="middle" x="74.75" y="-81.2" font-family="Times,serif" font-size="14.00">&quot;Полторашка&quot;</text>
<polyline fill="none" stroke="black" points="0,-74 149.5,-74"/>
<text xml:space="preserve" text-anchor="middle" x="74.75" y="-56.7" font-family="Times,serif" font-size="14.00">ptr = [0x7b94071e0280]</text>
<polyline fill="none" stroke="black" points="0,-49.5 149.5,-49.5"/>
<text xml:space="preserve" text-anchor="middle" x="74.75" y="-32.2" font-family="Times,serif" font-size="14.00">left = [(nil)]</text>
<polyline fill="none" stroke="black" points="0,-25 149.5,-25"/>
<text xml:space="preserve" text-anchor="middle" x="74.75" y="-7.7" font-family="Times,serif" font-size="14.00">right = [(nil)]</text>
</g>
<!-- node0x7b94071e0250&#45;&gt;node0x7b94071e0280 -->
<g id="edge1" class="edge">
<title>node0x7b94071e0250&#45;&gt;node0x7b94071e0280</title>
<path fill="none" stroke="black" d="M131.71,-151.87C123.95,-138.07 115.42,-122.88 107.37,-108.55"/>
<polygon fill="black" stroke="black" points="110.57,-107.11 102.63,-100.11 104.47,-110.54 110.57,-107.11"/>
<text xml:space="preserve" text-anchor="middle" x="127.14" y="-120.2" font-family="Times,serif" font-size="14.00">Да</text>
</g>
<!-- node0x7b94071e02b0 -->
<g id="node3" class="node">
<title>node0x7b94071e02b0</title>
<path fill="#66ccff" stroke="black" d="M180,-0.5C180,-0.5 305.5,-0.5 305.5,-0.5 311.5,-0.5 317.5,-6.5 317.5,-12.5 317.5,-12.5 317.5,-86.5 317.5,-86.5 317.5,-92.5 311.5,-98.5 305.5,-98.5 305.5,-98.5 180,-98.5 180,-98.5 174,-98.5 168,-92.5 168,-86.5 168,-86.5 168,-12.5 168,-12.5 168,-6.5 174,-0.5 180,-0.5"/>
<text xml:space="preserve" text-anchor="middle" x="242.75" y="-81.2" font-family="Times,serif" font-size="14.00">&quot;таракан&quot;</text>
<polyline fill="none" stroke="black" points="168,-74 317.5,-74"/>
<text xml:space="preserve" text-anchor="middle" x="242.75" y="-56.7" font-family="Times,serif" font-size="14.00">ptr = [0x7b94071e02b0]</text>
<polyline fill="none" stroke="black" points="168,-49.5 317.5,-49.5"/>
<text xml:space="preserve" text-anchor="middle" x="242.75" y="-32.2" font-family="Times,serif" font-size="14.00">left = [(nil)]</text>
<polyline fill="none" stroke="black" points="168,-25 317.5,-25"/>
<text xml:space="preserve" text-anchor="middle" x="242.75" y="-7.7" font-family="Times,serif" font-size="14.00">right = [(nil)]</text>
</g>
<!-- node0x7b94071e0250&#45;&gt;node0x7b94071e02b0 -->
<g id="edge2" class="edge">
<title>node0x7b94071e0250&#45;&gt;node0x7b94071e02b0</title>
<path fill="none" stroke="black" d="M185.79,-151.87C193.55,-138.07 202.08,-122.88 210.13,-108.55"/>
<polygon fill="black" stroke="black" points="213.03,-110.54 214.87,-100.11 206.93,-107.11 213.03,-110.54"/>
<text xml:space="preserve" text-anchor="middle" x="214.14" y="-120.2" font-family="Times,serif" font-size="14.00">Нет</text>
</g>
</g>
</svg>
