<?xml version="1.0" encoding="UTF-8" standalone="no"?>
<!DOCTYPE svg PUBLIC "-//W3C//DTD SVG 1.1//EN"
 "http://www.w3.org/Graphics/SVG/1.1/DTD/svg11.dtd">
<!-- Generated by graphviz version 13.1.1 (20250719.2154)
 -->
<!-- Title: G Pages: 1 -->
<svg width="156pt" height="107pt"
 viewBox="0.00 0.00 156.00 107.00" xmlns="http://www.w3.org/2000/svg" xmlns:xlink="http://www.w3.org/1999/xlink">
<g id="graph0" class="graph" transform="scale(1 1) rotate(0) translate(4 103)">
<title>G</title>
<polygon fill="white" stroke="none" points="-4,4 -4,-103 152,-103 152,4 -4,4"/>
<!-- node0x7b80ae7e0400 -->
<g id="node1" class="node">
<title>node0x7b80ae7e0400</title>
<path fill="#66ccff" stroke="black" d="M12,-0.5C12,-0.5 136,-0.5 136,-0.5 142,-0.5 148,-6.5 148,-12.5 148,-12.5 148,-86.5 148,-86.5 148,-92.5 142,-98.5 136,-98.5 136,-98.5 12,-98.5 12,-98.5 6,-98.5 0,-92.5 0,-86.5 0,-86.5 0,-12.5 0,-12.5 0,-6.5 6,-0.5 12,-0.5"/>
<text xml:space="preserve" text-anchor="middle" x="74" y="-81.2" font-family="Times,serif" font-size="14.00">&quot;Вадим&quot;</text>
<polyline fill="none" stroke="black" points="0,-74 148,-74"/>
<text xml:space="preserve" text-anchor="middle" x="74" y="-56.7" font-family="Times,serif" font-size="14.00">ptr = [0x7b80ae7e0400]</text>
<polyline fill="none" stroke="black" points="0,-49.5 148,-49.5"/>
<text xml:space="preserve" text-anchor="middle" x="74" y="-32.2" font-family="Times,serif" font-size="14.00">left = [(nil)]</text>
<polyline fill="none" stroke="black" points="0,-25 148,-25"/>
<text xml:space="preserve" text-anchor="middle" x="74" y="-7.7" font-family="Times,serif" font-size="14.00">right = [(nil)]</text>
</g>
</g>
</svg>
