<?xml version="1.0" encoding="UTF-8" standalone="no"?>
<!DOCTYPE svg PUBLIC "-//W3C//DTD SVG 1.1//EN"
 "http://www.w3.org/Graphics/SVG/1.1/DTD/svg11.dtd">
<!-- Generated by graphviz version 13.1.1 (20250719.2154)
 -->
<!-- Title: G Pages: 1 -->
<svg width="410pt" height="410pt"
 viewBox="0.00 0.00 410.00 410.00" xmlns="http://www.w3.org/2000/svg" xmlns:xlink="http://www.w3.org/1999/xlink">
<g id="graph0" class="graph" transform="scale(1 1) rotate(0) translate(4 406)">
<title>G</title>
<polygon fill="white" stroke="none" points="-4,4 -4,-406 406,-406 406,4 -4,4"/>
<!-- node0x7b80ae7e0370 -->
<g id="node1" class="node">
<title>node0x7b80ae7e0370</title>
<path fill="#66ccff" stroke="black" d="M174.75,-303.5C174.75,-303.5 309.25,-303.5 309.25,-303.5 315.25,-303.5 321.25,-309.5 321.25,-315.5 321.25,-315.5 321.25,-389.5 321.25,-389.5 321.25,-395.5 315.25,-401.5 309.25,-401.5 309.25,-401.5 174.75,-401.5 174.75,-401.5 168.75,-401.5 162.75,-395.5 162.75,-389.5 162.75,-389.5 162.75,-315.5 162.75,-315.5 162.75,-309.5 168.75,-303.5 174.75,-303.5"/>
<text xml:space="preserve" text-anchor="middle" x="242" y="-384.2" font-family="Times,serif" font-size="14.00">&quot;любит много спать&quot;</text>
<polyline fill="none" stroke="black" points="162.75,-377 321.25,-377"/>
<text xml:space="preserve" text-anchor="middle" x="242" y="-359.7" font-family="Times,serif" font-size="14.00">ptr = [0x7b80ae7e0370]</text>
<polyline fill="none" stroke="black" points="162.75,-352.5 321.25,-352.5"/>
<text xml:space="preserve" text-anchor="middle" x="242" y="-335.2" font-family="Times,serif" font-size="14.00">left = [0x7b80ae7e03d0]</text>
<polyline fill="none" stroke="black" points="162.75,-328 321.25,-328"/>
<text xml:space="preserve" text-anchor="middle" x="242" y="-310.7" font-family="Times,serif" font-size="14.00">right = [0x7b80ae7e0460]</text>
</g>
<!-- node0x7b80ae7e03d0 -->
<g id="node2" class="node">
<title>node0x7b80ae7e03d0</title>
<path fill="#66ccff" stroke="black" d="M89.75,-152C89.75,-152 224.25,-152 224.25,-152 230.25,-152 236.25,-158 236.25,-164 236.25,-164 236.25,-238 236.25,-238 236.25,-244 230.25,-250 224.25,-250 224.25,-250 89.75,-250 89.75,-250 83.75,-250 77.75,-244 77.75,-238 77.75,-238 77.75,-164 77.75,-164 77.75,-158 83.75,-152 89.75,-152"/>
<text xml:space="preserve" text-anchor="middle" x="157" y="-232.7" font-family="Times,serif" font-size="14.00">&quot;занимается ИИ&quot;</text>
<polyline fill="none" stroke="black" points="77.75,-225.5 236.25,-225.5"/>
<text xml:space="preserve" text-anchor="middle" x="157" y="-208.2" font-family="Times,serif" font-size="14.00">ptr = [0x7b80ae7e03d0]</text>
<polyline fill="none" stroke="black" points="77.75,-201 236.25,-201"/>
<text xml:space="preserve" text-anchor="middle" x="157" y="-183.7" font-family="Times,serif" font-size="14.00">left = [0x7b80ae7e0400]</text>
<polyline fill="none" stroke="black" points="77.75,-176.5 236.25,-176.5"/>
<text xml:space="preserve" text-anchor="middle" x="157" y="-159.2" font-family="Times,serif" font-size="14.00">right = [0x7b80ae7e0430]</text>
</g>
<!-- node0x7b80ae7e0370&#45;&gt;node0x7b80ae7e03d0 -->
<g id="edge1" class="edge">
<title>node0x7b80ae7e0370&#45;&gt;node0x7b80ae7e03d0</title>
<path fill="none" stroke="black" d="M214.64,-303.37C206.79,-289.57 198.15,-274.38 190,-260.05"/>
<polygon fill="black" stroke="black" points="193.19,-258.57 185.2,-251.61 187.1,-262.03 193.19,-258.57"/>
<text xml:space="preserve" text-anchor="middle" x="209.92" y="-271.7" font-family="Times,serif" font-size="14.00">Да</text>
</g>
<!-- node0x7b80ae7e0460 -->
<g id="node5" class="node">
<title>node0x7b80ae7e0460</title>
<path fill="#66ccff" stroke="black" d="M266,-152C266,-152 390,-152 390,-152 396,-152 402,-158 402,-164 402,-164 402,-238 402,-238 402,-244 396,-250 390,-250 390,-250 266,-250 266,-250 260,-250 254,-244 254,-238 254,-238 254,-164 254,-164 254,-158 260,-152 266,-152"/>
<text xml:space="preserve" text-anchor="middle" x="328" y="-232.7" font-family="Times,serif" font-size="14.00">&quot;Вова&quot;</text>
<polyline fill="none" stroke="black" points="254,-225.5 402,-225.5"/>
<text xml:space="preserve" text-anchor="middle" x="328" y="-208.2" font-family="Times,serif" font-size="14.00">ptr = [0x7b80ae7e0460]</text>
<polyline fill="none" stroke="black" points="254,-201 402,-201"/>
<text xml:space="preserve" text-anchor="middle" x="328" y="-183.7" font-family="Times,serif" font-size="14.00">left = [(nil)]</text>
<polyline fill="none" stroke="black" points="254,-176.5 402,-176.5"/>
<text xml:space="preserve" text-anchor="middle" x="328" y="-159.2" font-family="Times,serif" font-size="14.00">right = [(nil)]</text>
</g>
<!-- node0x7b80ae7e0370&#45;&gt;node0x7b80ae7e0460 -->
<g id="edge4" class="edge">
<title>node0x7b80ae7e0370&#45;&gt;node0x7b80ae7e0460</title>
<path fill="none" stroke="black" d="M269.68,-303.37C277.62,-289.57 286.36,-274.38 294.61,-260.05"/>
<polygon fill="black" stroke="black" points="297.51,-262.02 299.47,-251.6 291.45,-258.53 297.51,-262.02"/>
<text xml:space="preserve" text-anchor="middle" x="298.45" y="-271.7" font-family="Times,serif" font-size="14.00">Нет</text>
</g>
<!-- node0x7b80ae7e0400 -->
<g id="node3" class="node">
<title>node0x7b80ae7e0400</title>
<path fill="#66ccff" stroke="black" d="M12,-0.5C12,-0.5 136,-0.5 136,-0.5 142,-0.5 148,-6.5 148,-12.5 148,-12.5 148,-86.5 148,-86.5 148,-92.5 142,-98.5 136,-98.5 136,-98.5 12,-98.5 12,-98.5 6,-98.5 0,-92.5 0,-86.5 0,-86.5 0,-12.5 0,-12.5 0,-6.5 6,-0.5 12,-0.5"/>
<text xml:space="preserve" text-anchor="middle" x="74" y="-81.2" font-family="Times,serif" font-size="14.00">&quot;Вадим&quot;</text>
<polyline fill="none" stroke="black" points="0,-74 148,-74"/>
<text xml:space="preserve" text-anchor="middle" x="74" y="-56.7" font-family="Times,serif" font-size="14.00">ptr = [0x7b80ae7e0400]</text>
<polyline fill="none" stroke="black" points="0,-49.5 148,-49.5"/>
<text xml:space="preserve" text-anchor="middle" x="74" y="-32.2" font-family="Times,serif" font-size="14.00">left = [(nil)]</text>
<polyline fill="none" stroke="black" points="0,-25 148,-25"/>
<text xml:space="preserve" text-anchor="middle" x="74" y="-7.7" font-family="Times,serif" font-size="14.00">right = [(nil)]</text>
</g>
<!-- node0x7b80ae7e03d0&#45;&gt;node0x7b80ae7e0400 -->
<g id="edge2" class="edge">
<title>node0x7b80ae7e03d0&#45;&gt;node0x7b80ae7e0400</title>
<path fill="none" stroke="black" d="M130.28,-151.87C122.62,-138.07 114.18,-122.88 106.23,-108.55"/>
<polygon fill="black" stroke="black" points="109.46,-107.16 101.55,-100.11 103.34,-110.56 109.46,-107.16"/>
<text xml:space="preserve" text-anchor="middle" x="125.86" y="-120.2" font-family="Times,serif" font-size="14.00">Да</text>
</g>
<!-- node0x7b80ae7e0430 -->
<g id="node4" class="node">
<title>node0x7b80ae7e0430</title>
<path fill="#66ccff" stroke="black" d="M178,-0.5C178,-0.5 302,-0.5 302,-0.5 308,-0.5 314,-6.5 314,-12.5 314,-12.5 314,-86.5 314,-86.5 314,-92.5 308,-98.5 302,-98.5 302,-98.5 178,-98.5 178,-98.5 172,-98.5 166,-92.5 166,-86.5 166,-86.5 166,-12.5 166,-12.5 166,-6.5 172,-0.5 178,-0.5"/>
<text xml:space="preserve" text-anchor="middle" x="240" y="-81.2" font-family="Times,serif" font-size="14.00">&quot;Василий&quot;</text>
<polyline fill="none" stroke="black" points="166,-74 314,-74"/>
<text xml:space="preserve" text-anchor="middle" x="240" y="-56.7" font-family="Times,serif" font-size="14.00">ptr = [0x7b80ae7e0430]</text>
<polyline fill="none" stroke="black" points="166,-49.5 314,-49.5"/>
<text xml:space="preserve" text-anchor="middle" x="240" y="-32.2" font-family="Times,serif" font-size="14.00">left = [(nil)]</text>
<polyline fill="none" stroke="black" points="166,-25 314,-25"/>
<text xml:space="preserve" text-anchor="middle" x="240" y="-7.7" font-family="Times,serif" font-size="14.00">right = [(nil)]</text>
</g>
<!-- node0x7b80ae7e03d0&#45;&gt;node0x7b80ae7e0430 -->
<g id="edge3" class="edge">
<title>node0x7b80ae7e03d0&#45;&gt;node0x7b80ae7e0430</title>
<path fill="none" stroke="black" d="M183.72,-151.87C191.38,-138.07 199.82,-122.88 207.77,-108.55"/>
<polygon fill="black" stroke="black" points="210.66,-110.56 212.45,-100.11 204.54,-107.16 210.66,-110.56"/>
<text xml:space="preserve" text-anchor="middle" x="211.86" y="-120.2" font-family="Times,serif" font-size="14.00">Нет</text>
</g>
</g>
</svg>
