<?xml version="1.0" encoding="UTF-8" standalone="no"?>
<!DOCTYPE svg PUBLIC "-//W3C//DTD SVG 1.1//EN"
 "http://www.w3.org/Graphics/SVG/1.1/DTD/svg11.dtd">
<!-- Generated by graphviz version 13.1.1 (20250719.2154)
 -->
<!-- Title: G Pages: 1 -->
<svg width="665pt" height="562pt"
 viewBox="0.00 0.00 665.00 562.00" xmlns="http://www.w3.org/2000/svg" xmlns:xlink="http://www.w3.org/1999/xlink">
<g id="graph0" class="graph" transform="scale(1 1) rotate(0) translate(4 557.5)">
<title>G</title>
<polygon fill="white" stroke="none" points="-4,4 -4,-557.5 661,-557.5 661,4 -4,4"/>
<!-- node0x7b80ae7e0250 -->
<g id="node1" class="node">
<title>node0x7b80ae7e0250</title>
<path fill="#66ccff" stroke="black" d="M257.75,-455C257.75,-455 392.25,-455 392.25,-455 398.25,-455 404.25,-461 404.25,-467 404.25,-467 404.25,-541 404.25,-541 404.25,-547 398.25,-553 392.25,-553 392.25,-553 257.75,-553 257.75,-553 251.75,-553 245.75,-547 245.75,-541 245.75,-541 245.75,-467 245.75,-467 245.75,-461 251.75,-455 257.75,-455"/>
<text xml:space="preserve" text-anchor="middle" x="325" y="-535.7" font-family="Times,serif" font-size="14.00">&quot;животное&quot;</text>
<polyline fill="none" stroke="black" points="245.75,-528.5 404.25,-528.5"/>
<text xml:space="preserve" text-anchor="middle" x="325" y="-511.2" font-family="Times,serif" font-size="14.00">ptr = [0x7b80ae7e0250]</text>
<polyline fill="none" stroke="black" points="245.75,-504 404.25,-504"/>
<text xml:space="preserve" text-anchor="middle" x="325" y="-486.7" font-family="Times,serif" font-size="14.00">left = [0x7b80ae7e02b0]</text>
<polyline fill="none" stroke="black" points="245.75,-479.5 404.25,-479.5"/>
<text xml:space="preserve" text-anchor="middle" x="325" y="-462.2" font-family="Times,serif" font-size="14.00">right = [0x7b80ae7e0370]</text>
</g>
<!-- node0x7b80ae7e02b0 -->
<g id="node2" class="node">
<title>node0x7b80ae7e02b0</title>
<path fill="#66ccff" stroke="black" d="M169.75,-303.5C169.75,-303.5 304.25,-303.5 304.25,-303.5 310.25,-303.5 316.25,-309.5 316.25,-315.5 316.25,-315.5 316.25,-389.5 316.25,-389.5 316.25,-395.5 310.25,-401.5 304.25,-401.5 304.25,-401.5 169.75,-401.5 169.75,-401.5 163.75,-401.5 157.75,-395.5 157.75,-389.5 157.75,-389.5 157.75,-315.5 157.75,-315.5 157.75,-309.5 163.75,-303.5 169.75,-303.5"/>
<text xml:space="preserve" text-anchor="middle" x="237" y="-384.2" font-family="Times,serif" font-size="14.00">&quot;ловит мышей&quot;</text>
<polyline fill="none" stroke="black" points="157.75,-377 316.25,-377"/>
<text xml:space="preserve" text-anchor="middle" x="237" y="-359.7" font-family="Times,serif" font-size="14.00">ptr = [0x7b80ae7e02b0]</text>
<polyline fill="none" stroke="black" points="157.75,-352.5 316.25,-352.5"/>
<text xml:space="preserve" text-anchor="middle" x="237" y="-335.2" font-family="Times,serif" font-size="14.00">left = [0x7b80ae7e0310]</text>
<polyline fill="none" stroke="black" points="157.75,-328 316.25,-328"/>
<text xml:space="preserve" text-anchor="middle" x="237" y="-310.7" font-family="Times,serif" font-size="14.00">right = [0x7b80ae7e0340]</text>
</g>
<!-- node0x7b80ae7e0250&#45;&gt;node0x7b80ae7e02b0 -->
<g id="edge1" class="edge">
<title>node0x7b80ae7e0250&#45;&gt;node0x7b80ae7e02b0</title>
<path fill="none" stroke="black" d="M296.67,-454.87C288.55,-441.07 279.6,-425.88 271.17,-411.55"/>
<polygon fill="black" stroke="black" points="274.28,-409.94 266.19,-403.1 268.25,-413.49 274.28,-409.94"/>
<text xml:space="preserve" text-anchor="middle" x="291.51" y="-423.2" font-family="Times,serif" font-size="14.00">Да</text>
</g>
<!-- node0x7b80ae7e0370 -->
<g id="node5" class="node">
<title>node0x7b80ae7e0370</title>
<path fill="#66ccff" stroke="black" d="M346.75,-303.5C346.75,-303.5 481.25,-303.5 481.25,-303.5 487.25,-303.5 493.25,-309.5 493.25,-315.5 493.25,-315.5 493.25,-389.5 493.25,-389.5 493.25,-395.5 487.25,-401.5 481.25,-401.5 481.25,-401.5 346.75,-401.5 346.75,-401.5 340.75,-401.5 334.75,-395.5 334.75,-389.5 334.75,-389.5 334.75,-315.5 334.75,-315.5 334.75,-309.5 340.75,-303.5 346.75,-303.5"/>
<text xml:space="preserve" text-anchor="middle" x="414" y="-384.2" font-family="Times,serif" font-size="14.00">&quot;любит много спать&quot;</text>
<polyline fill="none" stroke="black" points="334.75,-377 493.25,-377"/>
<text xml:space="preserve" text-anchor="middle" x="414" y="-359.7" font-family="Times,serif" font-size="14.00">ptr = [0x7b80ae7e0370]</text>
<polyline fill="none" stroke="black" points="334.75,-352.5 493.25,-352.5"/>
<text xml:space="preserve" text-anchor="middle" x="414" y="-335.2" font-family="Times,serif" font-size="14.00">left = [0x7b80ae7e03d0]</text>
<polyline fill="none" stroke="black" points="334.75,-328 493.25,-328"/>
<text xml:space="preserve" text-anchor="middle" x="414" y="-310.7" font-family="Times,serif" font-size="14.00">right = [0x7b80ae7e0460]</text>
</g>
<!-- node0x7b80ae7e0250&#45;&gt;node0x7b80ae7e0370 -->
<g id="edge4" class="edge">
<title>node0x7b80ae7e0250&#45;&gt;node0x7b80ae7e0370</title>
<path fill="none" stroke="black" d="M353.65,-454.87C361.87,-441.07 370.91,-425.88 379.44,-411.55"/>
<polygon fill="black" stroke="black" points="382.37,-413.48 384.48,-403.09 376.35,-409.89 382.37,-413.48"/>
<text xml:space="preserve" text-anchor="middle" x="383.04" y="-423.2" font-family="Times,serif" font-size="14.00">Нет</text>
</g>
<!-- node0x7b80ae7e0310 -->
<g id="node3" class="node">
<title>node0x7b80ae7e0310</title>
<path fill="#66ccff" stroke="black" d="M12,-152C12,-152 136,-152 136,-152 142,-152 148,-158 148,-164 148,-164 148,-238 148,-238 148,-244 142,-250 136,-250 136,-250 12,-250 12,-250 6,-250 0,-244 0,-238 0,-238 0,-164 0,-164 0,-158 6,-152 12,-152"/>
<text xml:space="preserve" text-anchor="middle" x="74" y="-232.7" font-family="Times,serif" font-size="14.00">&quot;Полторашка&quot;</text>
<polyline fill="none" stroke="black" points="0,-225.5 148,-225.5"/>
<text xml:space="preserve" text-anchor="middle" x="74" y="-208.2" font-family="Times,serif" font-size="14.00">ptr = [0x7b80ae7e0310]</text>
<polyline fill="none" stroke="black" points="0,-201 148,-201"/>
<text xml:space="preserve" text-anchor="middle" x="74" y="-183.7" font-family="Times,serif" font-size="14.00">left = [(nil)]</text>
<polyline fill="none" stroke="black" points="0,-176.5 148,-176.5"/>
<text xml:space="preserve" text-anchor="middle" x="74" y="-159.2" font-family="Times,serif" font-size="14.00">right = [(nil)]</text>
</g>
<!-- node0x7b80ae7e02b0&#45;&gt;node0x7b80ae7e0310 -->
<g id="edge2" class="edge">
<title>node0x7b80ae7e02b0&#45;&gt;node0x7b80ae7e0310</title>
<path fill="none" stroke="black" d="M184.53,-303.37C168.76,-288.91 151.32,-272.91 135.04,-257.99"/>
<polygon fill="black" stroke="black" points="137.5,-255.49 127.77,-251.31 132.77,-260.65 137.5,-255.49"/>
<text xml:space="preserve" text-anchor="middle" x="168.26" y="-271.7" font-family="Times,serif" font-size="14.00">Да</text>
</g>
<!-- node0x7b80ae7e0340 -->
<g id="node4" class="node">
<title>node0x7b80ae7e0340</title>
<path fill="#66ccff" stroke="black" d="M178,-152C178,-152 302,-152 302,-152 308,-152 314,-158 314,-164 314,-164 314,-238 314,-238 314,-244 308,-250 302,-250 302,-250 178,-250 178,-250 172,-250 166,-244 166,-238 166,-238 166,-164 166,-164 166,-158 172,-152 178,-152"/>
<text xml:space="preserve" text-anchor="middle" x="240" y="-232.7" font-family="Times,serif" font-size="14.00">&quot;таракан&quot;</text>
<polyline fill="none" stroke="black" points="166,-225.5 314,-225.5"/>
<text xml:space="preserve" text-anchor="middle" x="240" y="-208.2" font-family="Times,serif" font-size="14.00">ptr = [0x7b80ae7e0340]</text>
<polyline fill="none" stroke="black" points="166,-201 314,-201"/>
<text xml:space="preserve" text-anchor="middle" x="240" y="-183.7" font-family="Times,serif" font-size="14.00">left = [(nil)]</text>
<polyline fill="none" stroke="black" points="166,-176.5 314,-176.5"/>
<text xml:space="preserve" text-anchor="middle" x="240" y="-159.2" font-family="Times,serif" font-size="14.00">right = [(nil)]</text>
</g>
<!-- node0x7b80ae7e02b0&#45;&gt;node0x7b80ae7e0340 -->
<g id="edge3" class="edge">
<title>node0x7b80ae7e02b0&#45;&gt;node0x7b80ae7e0340</title>
<path fill="none" stroke="black" d="M237.97,-303.37C238.23,-290.1 238.52,-275.55 238.8,-261.7"/>
<polygon fill="black" stroke="black" points="242.3,-261.87 239,-251.8 235.3,-261.73 242.3,-261.87"/>
<text xml:space="preserve" text-anchor="middle" x="249.46" y="-271.7" font-family="Times,serif" font-size="14.00">Нет</text>
</g>
<!-- node0x7b80ae7e03d0 -->
<g id="node6" class="node">
<title>node0x7b80ae7e03d0</title>
<path fill="#66ccff" stroke="black" d="M344.75,-152C344.75,-152 479.25,-152 479.25,-152 485.25,-152 491.25,-158 491.25,-164 491.25,-164 491.25,-238 491.25,-238 491.25,-244 485.25,-250 479.25,-250 479.25,-250 344.75,-250 344.75,-250 338.75,-250 332.75,-244 332.75,-238 332.75,-238 332.75,-164 332.75,-164 332.75,-158 338.75,-152 344.75,-152"/>
<text xml:space="preserve" text-anchor="middle" x="412" y="-232.7" font-family="Times,serif" font-size="14.00">&quot;занимается ИИ&quot;</text>
<polyline fill="none" stroke="black" points="332.75,-225.5 491.25,-225.5"/>
<text xml:space="preserve" text-anchor="middle" x="412" y="-208.2" font-family="Times,serif" font-size="14.00">ptr = [0x7b80ae7e03d0]</text>
<polyline fill="none" stroke="black" points="332.75,-201 491.25,-201"/>
<text xml:space="preserve" text-anchor="middle" x="412" y="-183.7" font-family="Times,serif" font-size="14.00">left = [0x7b80ae7e0400]</text>
<polyline fill="none" stroke="black" points="332.75,-176.5 491.25,-176.5"/>
<text xml:space="preserve" text-anchor="middle" x="412" y="-159.2" font-family="Times,serif" font-size="14.00">right = [0x7b80ae7e0430]</text>
</g>
<!-- node0x7b80ae7e0370&#45;&gt;node0x7b80ae7e03d0 -->
<g id="edge5" class="edge">
<title>node0x7b80ae7e0370&#45;&gt;node0x7b80ae7e03d0</title>
<path fill="none" stroke="black" d="M413.36,-303.37C413.18,-290.1 412.98,-275.55 412.8,-261.7"/>
<polygon fill="black" stroke="black" points="416.3,-261.76 412.67,-251.81 409.3,-261.85 416.3,-261.76"/>
<text xml:space="preserve" text-anchor="middle" x="420.93" y="-271.7" font-family="Times,serif" font-size="14.00">Да</text>
</g>
<!-- node0x7b80ae7e0460 -->
<g id="node9" class="node">
<title>node0x7b80ae7e0460</title>
<path fill="#66ccff" stroke="black" d="M521,-152C521,-152 645,-152 645,-152 651,-152 657,-158 657,-164 657,-164 657,-238 657,-238 657,-244 651,-250 645,-250 645,-250 521,-250 521,-250 515,-250 509,-244 509,-238 509,-238 509,-164 509,-164 509,-158 515,-152 521,-152"/>
<text xml:space="preserve" text-anchor="middle" x="583" y="-232.7" font-family="Times,serif" font-size="14.00">&quot;Вова&quot;</text>
<polyline fill="none" stroke="black" points="509,-225.5 657,-225.5"/>
<text xml:space="preserve" text-anchor="middle" x="583" y="-208.2" font-family="Times,serif" font-size="14.00">ptr = [0x7b80ae7e0460]</text>
<polyline fill="none" stroke="black" points="509,-201 657,-201"/>
<text xml:space="preserve" text-anchor="middle" x="583" y="-183.7" font-family="Times,serif" font-size="14.00">left = [(nil)]</text>
<polyline fill="none" stroke="black" points="509,-176.5 657,-176.5"/>
<text xml:space="preserve" text-anchor="middle" x="583" y="-159.2" font-family="Times,serif" font-size="14.00">right = [(nil)]</text>
</g>
<!-- node0x7b80ae7e0370&#45;&gt;node0x7b80ae7e0460 -->
<g id="edge8" class="edge">
<title>node0x7b80ae7e0370&#45;&gt;node0x7b80ae7e0460</title>
<path fill="none" stroke="black" d="M468.4,-303.37C484.9,-288.78 503.17,-272.62 520.17,-257.58"/>
<polygon fill="black" stroke="black" points="522.1,-260.54 527.28,-251.29 517.47,-255.3 522.1,-260.54"/>
<text xml:space="preserve" text-anchor="middle" x="514.44" y="-271.7" font-family="Times,serif" font-size="14.00">Нет</text>
</g>
<!-- node0x7b80ae7e0400 -->
<g id="node7" class="node">
<title>node0x7b80ae7e0400</title>
<path fill="#66ccff" stroke="black" d="M267,-0.5C267,-0.5 391,-0.5 391,-0.5 397,-0.5 403,-6.5 403,-12.5 403,-12.5 403,-86.5 403,-86.5 403,-92.5 397,-98.5 391,-98.5 391,-98.5 267,-98.5 267,-98.5 261,-98.5 255,-92.5 255,-86.5 255,-86.5 255,-12.5 255,-12.5 255,-6.5 261,-0.5 267,-0.5"/>
<text xml:space="preserve" text-anchor="middle" x="329" y="-81.2" font-family="Times,serif" font-size="14.00">&quot;Вадим&quot;</text>
<polyline fill="none" stroke="black" points="255,-74 403,-74"/>
<text xml:space="preserve" text-anchor="middle" x="329" y="-56.7" font-family="Times,serif" font-size="14.00">ptr = [0x7b80ae7e0400]</text>
<polyline fill="none" stroke="black" points="255,-49.5 403,-49.5"/>
<text xml:space="preserve" text-anchor="middle" x="329" y="-32.2" font-family="Times,serif" font-size="14.00">left = [(nil)]</text>
<polyline fill="none" stroke="black" points="255,-25 403,-25"/>
<text xml:space="preserve" text-anchor="middle" x="329" y="-7.7" font-family="Times,serif" font-size="14.00">right = [(nil)]</text>
</g>
<!-- node0x7b80ae7e03d0&#45;&gt;node0x7b80ae7e0400 -->
<g id="edge6" class="edge">
<title>node0x7b80ae7e03d0&#45;&gt;node0x7b80ae7e0400</title>
<path fill="none" stroke="black" d="M385.28,-151.87C377.62,-138.07 369.18,-122.88 361.23,-108.55"/>
<polygon fill="black" stroke="black" points="364.46,-107.16 356.55,-100.11 358.34,-110.56 364.46,-107.16"/>
<text xml:space="preserve" text-anchor="middle" x="380.86" y="-120.2" font-family="Times,serif" font-size="14.00">Да</text>
</g>
<!-- node0x7b80ae7e0430 -->
<g id="node8" class="node">
<title>node0x7b80ae7e0430</title>
<path fill="#66ccff" stroke="black" d="M433,-0.5C433,-0.5 557,-0.5 557,-0.5 563,-0.5 569,-6.5 569,-12.5 569,-12.5 569,-86.5 569,-86.5 569,-92.5 563,-98.5 557,-98.5 557,-98.5 433,-98.5 433,-98.5 427,-98.5 421,-92.5 421,-86.5 421,-86.5 421,-12.5 421,-12.5 421,-6.5 427,-0.5 433,-0.5"/>
<text xml:space="preserve" text-anchor="middle" x="495" y="-81.2" font-family="Times,serif" font-size="14.00">&quot;Василий&quot;</text>
<polyline fill="none" stroke="black" points="421,-74 569,-74"/>
<text xml:space="preserve" text-anchor="middle" x="495" y="-56.7" font-family="Times,serif" font-size="14.00">ptr = [0x7b80ae7e0430]</text>
<polyline fill="none" stroke="black" points="421,-49.5 569,-49.5"/>
<text xml:space="preserve" text-anchor="middle" x="495" y="-32.2" font-family="Times,serif" font-size="14.00">left = [(nil)]</text>
<polyline fill="none" stroke="black" points="421,-25 569,-25"/>
<text xml:space="preserve" text-anchor="middle" x="495" y="-7.7" font-family="Times,serif" font-size="14.00">right = [(nil)]</text>
</g>
<!-- node0x7b80ae7e03d0&#45;&gt;node0x7b80ae7e0430 -->
<g id="edge7" class="edge">
<title>node0x7b80ae7e03d0&#45;&gt;node0x7b80ae7e0430</title>
<path fill="none" stroke="black" d="M438.72,-151.87C446.38,-138.07 454.82,-122.88 462.77,-108.55"/>
<polygon fill="black" stroke="black" points="465.66,-110.56 467.45,-100.11 459.54,-107.16 465.66,-110.56"/>
<text xml:space="preserve" text-anchor="middle" x="466.86" y="-120.2" font-family="Times,serif" font-size="14.00">Нет</text>
</g>
</g>
</svg>
