<?xml version="1.0" encoding="UTF-8" standalone="no"?>
<!DOCTYPE svg PUBLIC "-//W3C//DTD SVG 1.1//EN"
 "http://www.w3.org/Graphics/SVG/1.1/DTD/svg11.dtd">
<!-- Generated by graphviz version 13.1.1 (20250719.2154)
 -->
<!-- Title: G Pages: 1 -->
<svg width="322pt" height="259pt"
 viewBox="0.00 0.00 322.00 259.00" xmlns="http://www.w3.org/2000/svg" xmlns:xlink="http://www.w3.org/1999/xlink">
<g id="graph0" class="graph" transform="scale(1 1) rotate(0) translate(4 254.5)">
<title>G</title>
<polygon fill="white" stroke="none" points="-4,4 -4,-254.5 318,-254.5 318,4 -4,4"/>
<!-- node0x7b80ae7e02b0 -->
<g id="node1" class="node">
<title>node0x7b80ae7e02b0</title>
<path fill="#66ccff" stroke="black" d="M89.75,-152C89.75,-152 224.25,-152 224.25,-152 230.25,-152 236.25,-158 236.25,-164 236.25,-164 236.25,-238 236.25,-238 236.25,-244 230.25,-250 224.25,-250 224.25,-250 89.75,-250 89.75,-250 83.75,-250 77.75,-244 77.75,-238 77.75,-238 77.75,-164 77.75,-164 77.75,-158 83.75,-152 89.75,-152"/>
<text xml:space="preserve" text-anchor="middle" x="157" y="-232.7" font-family="Times,serif" font-size="14.00">&quot;ловит мышей&quot;</text>
<polyline fill="none" stroke="black" points="77.75,-225.5 236.25,-225.5"/>
<text xml:space="preserve" text-anchor="middle" x="157" y="-208.2" font-family="Times,serif" font-size="14.00">ptr = [0x7b80ae7e02b0]</text>
<polyline fill="none" stroke="black" points="77.75,-201 236.25,-201"/>
<text xml:space="preserve" text-anchor="middle" x="157" y="-183.7" font-family="Times,serif" font-size="14.00">left = [0x7b80ae7e0310]</text>
<polyline fill="none" stroke="black" points="77.75,-176.5 236.25,-176.5"/>
<text xml:space="preserve" text-anchor="middle" x="157" y="-159.2" font-family="Times,serif" font-size="14.00">right = [0x7b80ae7e0340]</text>
</g>
<!-- node0x7b80ae7e0310 -->
<g id="node2" class="node">
<title>node0x7b80ae7e0310</title>
<path fill="#66ccff" stroke="black" d="M12,-0.5C12,-0.5 136,-0.5 136,-0.5 142,-0.5 148,-6.5 148,-12.5 148,-12.5 148,-86.5 148,-86.5 148,-92.5 142,-98.5 136,-98.5 136,-98.5 12,-98.5 12,-98.5 6,-98.5 0,-92.5 0,-86.5 0,-86.5 0,-12.5 0,-12.5 0,-6.5 6,-0.5 12,-0.5"/>
<text xml:space="preserve" text-anchor="middle" x="74" y="-81.2" font-family="Times,serif" font-size="14.00">&quot;Полторашка&quot;</text>
<polyline fill="none" stroke="black" points="0,-74 148,-74"/>
<text xml:space="preserve" text-anchor="middle" x="74" y="-56.7" font-family="Times,serif" font-size="14.00">ptr = [0x7b80ae7e0310]</text>
<polyline fill="none" stroke="black" points="0,-49.5 148,-49.5"/>
<text xml:space="preserve" text-anchor="middle" x="74" y="-32.2" font-family="Times,serif" font-size="14.00">left = [(nil)]</text>
<polyline fill="none" stroke="black" points="0,-25 148,-25"/>
<text xml:space="preserve" text-anchor="middle" x="74" y="-7.7" font-family="Times,serif" font-size="14.00">right = [(nil)]</text>
</g>
<!-- node0x7b80ae7e02b0&#45;&gt;node0x7b80ae7e0310 -->
<g id="edge1" class="edge">
<title>node0x7b80ae7e02b0&#45;&gt;node0x7b80ae7e0310</title>
<path fill="none" stroke="black" d="M130.28,-151.87C122.62,-138.07 114.18,-122.88 106.23,-108.55"/>
<polygon fill="black" stroke="black" points="109.46,-107.16 101.55,-100.11 103.34,-110.56 109.46,-107.16"/>
<text xml:space="preserve" text-anchor="middle" x="125.86" y="-120.2" font-family="Times,serif" font-size="14.00">Да</text>
</g>
<!-- node0x7b80ae7e0340 -->
<g id="node3" class="node">
<title>node0x7b80ae7e0340</title>
<path fill="#66ccff" stroke="black" d="M178,-0.5C178,-0.5 302,-0.5 302,-0.5 308,-0.5 314,-6.5 314,-12.5 314,-12.5 314,-86.5 314,-86.5 314,-92.5 308,-98.5 302,-98.5 302,-98.5 178,-98.5 178,-98.5 172,-98.5 166,-92.5 166,-86.5 166,-86.5 166,-12.5 166,-12.5 166,-6.5 172,-0.5 178,-0.5"/>
<text xml:space="preserve" text-anchor="middle" x="240" y="-81.2" font-family="Times,serif" font-size="14.00">&quot;таракан&quot;</text>
<polyline fill="none" stroke="black" points="166,-74 314,-74"/>
<text xml:space="preserve" text-anchor="middle" x="240" y="-56.7" font-family="Times,serif" font-size="14.00">ptr = [0x7b80ae7e0340]</text>
<polyline fill="none" stroke="black" points="166,-49.5 314,-49.5"/>
<text xml:space="preserve" text-anchor="middle" x="240" y="-32.2" font-family="Times,serif" font-size="14.00">left = [(nil)]</text>
<polyline fill="none" stroke="black" points="166,-25 314,-25"/>
<text xml:space="preserve" text-anchor="middle" x="240" y="-7.7" font-family="Times,serif" font-size="14.00">right = [(nil)]</text>
</g>
<!-- node0x7b80ae7e02b0&#45;&gt;node0x7b80ae7e0340 -->
<g id="edge2" class="edge">
<title>node0x7b80ae7e02b0&#45;&gt;node0x7b80ae7e0340</title>
<path fill="none" stroke="black" d="M183.72,-151.87C191.38,-138.07 199.82,-122.88 207.77,-108.55"/>
<polygon fill="black" stroke="black" points="210.66,-110.56 212.45,-100.11 204.54,-107.16 210.66,-110.56"/>
<text xml:space="preserve" text-anchor="middle" x="211.86" y="-120.2" font-family="Times,serif" font-size="14.00">Нет</text>
</g>
</g>
</svg>
