<?xml version="1.0" encoding="UTF-8" standalone="no"?>
<!DOCTYPE svg PUBLIC "-//W3C//DTD SVG 1.1//EN"
 "http://www.w3.org/Graphics/SVG/1.1/DTD/svg11.dtd">
<!-- Generated by graphviz version 13.1.1 (20250719.2154)
 -->
<!-- Title: G Pages: 1 -->
<svg width="673pt" height="562pt"
 viewBox="0.00 0.00 673.00 562.00" xmlns="http://www.w3.org/2000/svg" xmlns:xlink="http://www.w3.org/1999/xlink">
<g id="graph0" class="graph" transform="scale(1 1) rotate(0) translate(4 557.5)">
<title>G</title>
<polygon fill="white" stroke="none" points="-4,4 -4,-557.5 668.5,-557.5 668.5,4 -4,4"/>
<!-- node0x7bb912de01f0 -->
<g id="node1" class="node">
<title>node0x7bb912de01f0</title>
<path fill="#66ccff" stroke="black" d="M260.75,-455C260.75,-455 396.75,-455 396.75,-455 402.75,-455 408.75,-461 408.75,-467 408.75,-467 408.75,-541 408.75,-541 408.75,-547 402.75,-553 396.75,-553 396.75,-553 260.75,-553 260.75,-553 254.75,-553 248.75,-547 248.75,-541 248.75,-541 248.75,-467 248.75,-467 248.75,-461 254.75,-455 260.75,-455"/>
<text xml:space="preserve" text-anchor="middle" x="328.75" y="-535.7" font-family="Times,serif" font-size="14.00">&quot;животное&quot;</text>
<polyline fill="none" stroke="black" points="248.75,-528.5 408.75,-528.5"/>
<text xml:space="preserve" text-anchor="middle" x="328.75" y="-511.2" font-family="Times,serif" font-size="14.00">ptr = [0x7bb912de01f0]</text>
<polyline fill="none" stroke="black" points="248.75,-504 408.75,-504"/>
<text xml:space="preserve" text-anchor="middle" x="328.75" y="-486.7" font-family="Times,serif" font-size="14.00">left = [0x7bb912de0220]</text>
<polyline fill="none" stroke="black" points="248.75,-479.5 408.75,-479.5"/>
<text xml:space="preserve" text-anchor="middle" x="328.75" y="-462.2" font-family="Times,serif" font-size="14.00">right = [0x7bb912de02b0]</text>
</g>
<!-- node0x7bb912de0220 -->
<g id="node2" class="node">
<title>node0x7bb912de0220</title>
<path fill="#66ccff" stroke="black" d="M172.75,-303.5C172.75,-303.5 308.75,-303.5 308.75,-303.5 314.75,-303.5 320.75,-309.5 320.75,-315.5 320.75,-315.5 320.75,-389.5 320.75,-389.5 320.75,-395.5 314.75,-401.5 308.75,-401.5 308.75,-401.5 172.75,-401.5 172.75,-401.5 166.75,-401.5 160.75,-395.5 160.75,-389.5 160.75,-389.5 160.75,-315.5 160.75,-315.5 160.75,-309.5 166.75,-303.5 172.75,-303.5"/>
<text xml:space="preserve" text-anchor="middle" x="240.75" y="-384.2" font-family="Times,serif" font-size="14.00">&quot;ловит мышей&quot;</text>
<polyline fill="none" stroke="black" points="160.75,-377 320.75,-377"/>
<text xml:space="preserve" text-anchor="middle" x="240.75" y="-359.7" font-family="Times,serif" font-size="14.00">ptr = [0x7bb912de0220]</text>
<polyline fill="none" stroke="black" points="160.75,-352.5 320.75,-352.5"/>
<text xml:space="preserve" text-anchor="middle" x="240.75" y="-335.2" font-family="Times,serif" font-size="14.00">left = [0x7bb912de0250]</text>
<polyline fill="none" stroke="black" points="160.75,-328 320.75,-328"/>
<text xml:space="preserve" text-anchor="middle" x="240.75" y="-310.7" font-family="Times,serif" font-size="14.00">right = [0x7bb912de0280]</text>
</g>
<!-- node0x7bb912de01f0&#45;&gt;node0x7bb912de0220 -->
<g id="edge1" class="edge">
<title>node0x7bb912de01f0&#45;&gt;node0x7bb912de0220</title>
<path fill="none" stroke="black" d="M300.42,-454.87C292.3,-441.07 283.35,-425.88 274.92,-411.55"/>
<polygon fill="black" stroke="black" points="278.03,-409.94 269.94,-403.1 272,-413.49 278.03,-409.94"/>
<text xml:space="preserve" text-anchor="middle" x="295.26" y="-423.2" font-family="Times,serif" font-size="14.00">Да</text>
</g>
<!-- node0x7bb912de02b0 -->
<g id="node5" class="node">
<title>node0x7bb912de02b0</title>
<path fill="#66ccff" stroke="black" d="M350.75,-303.5C350.75,-303.5 486.75,-303.5 486.75,-303.5 492.75,-303.5 498.75,-309.5 498.75,-315.5 498.75,-315.5 498.75,-389.5 498.75,-389.5 498.75,-395.5 492.75,-401.5 486.75,-401.5 486.75,-401.5 350.75,-401.5 350.75,-401.5 344.75,-401.5 338.75,-395.5 338.75,-389.5 338.75,-389.5 338.75,-315.5 338.75,-315.5 338.75,-309.5 344.75,-303.5 350.75,-303.5"/>
<text xml:space="preserve" text-anchor="middle" x="418.75" y="-384.2" font-family="Times,serif" font-size="14.00">&quot;любит много спать&quot;</text>
<polyline fill="none" stroke="black" points="338.75,-377 498.75,-377"/>
<text xml:space="preserve" text-anchor="middle" x="418.75" y="-359.7" font-family="Times,serif" font-size="14.00">ptr = [0x7bb912de02b0]</text>
<polyline fill="none" stroke="black" points="338.75,-352.5 498.75,-352.5"/>
<text xml:space="preserve" text-anchor="middle" x="418.75" y="-335.2" font-family="Times,serif" font-size="14.00">left = [0x7bb912de02e0]</text>
<polyline fill="none" stroke="black" points="338.75,-328 498.75,-328"/>
<text xml:space="preserve" text-anchor="middle" x="418.75" y="-310.7" font-family="Times,serif" font-size="14.00">right = [0x7bb912de0370]</text>
</g>
<!-- node0x7bb912de01f0&#45;&gt;node0x7bb912de02b0 -->
<g id="edge4" class="edge">
<title>node0x7bb912de01f0&#45;&gt;node0x7bb912de02b0</title>
<path fill="none" stroke="black" d="M357.72,-454.87C366.03,-441.07 375.18,-425.88 383.81,-411.55"/>
<polygon fill="black" stroke="black" points="386.74,-413.46 388.9,-403.09 380.74,-409.85 386.74,-413.46"/>
<text xml:space="preserve" text-anchor="middle" x="387.32" y="-423.2" font-family="Times,serif" font-size="14.00">Нет</text>
</g>
<!-- node0x7bb912de0250 -->
<g id="node3" class="node">
<title>node0x7bb912de0250</title>
<path fill="#66ccff" stroke="black" d="M12,-152C12,-152 137.5,-152 137.5,-152 143.5,-152 149.5,-158 149.5,-164 149.5,-164 149.5,-238 149.5,-238 149.5,-244 143.5,-250 137.5,-250 137.5,-250 12,-250 12,-250 6,-250 0,-244 0,-238 0,-238 0,-164 0,-164 0,-158 6,-152 12,-152"/>
<text xml:space="preserve" text-anchor="middle" x="74.75" y="-232.7" font-family="Times,serif" font-size="14.00">&quot;Полторашка&quot;</text>
<polyline fill="none" stroke="black" points="0,-225.5 149.5,-225.5"/>
<text xml:space="preserve" text-anchor="middle" x="74.75" y="-208.2" font-family="Times,serif" font-size="14.00">ptr = [0x7bb912de0250]</text>
<polyline fill="none" stroke="black" points="0,-201 149.5,-201"/>
<text xml:space="preserve" text-anchor="middle" x="74.75" y="-183.7" font-family="Times,serif" font-size="14.00">left = [(nil)]</text>
<polyline fill="none" stroke="black" points="0,-176.5 149.5,-176.5"/>
<text xml:space="preserve" text-anchor="middle" x="74.75" y="-159.2" font-family="Times,serif" font-size="14.00">right = [(nil)]</text>
</g>
<!-- node0x7bb912de0220&#45;&gt;node0x7bb912de0250 -->
<g id="edge2" class="edge">
<title>node0x7bb912de0220&#45;&gt;node0x7bb912de0250</title>
<path fill="none" stroke="black" d="M187.31,-303.37C171.25,-288.91 153.49,-272.91 136.92,-257.99"/>
<polygon fill="black" stroke="black" points="139.27,-255.4 129.5,-251.3 134.58,-260.6 139.27,-255.4"/>
<text xml:space="preserve" text-anchor="middle" x="170.6" y="-271.7" font-family="Times,serif" font-size="14.00">Да</text>
</g>
<!-- node0x7bb912de0280 -->
<g id="node4" class="node">
<title>node0x7bb912de0280</title>
<path fill="#66ccff" stroke="black" d="M180,-152C180,-152 305.5,-152 305.5,-152 311.5,-152 317.5,-158 317.5,-164 317.5,-164 317.5,-238 317.5,-238 317.5,-244 311.5,-250 305.5,-250 305.5,-250 180,-250 180,-250 174,-250 168,-244 168,-238 168,-238 168,-164 168,-164 168,-158 174,-152 180,-152"/>
<text xml:space="preserve" text-anchor="middle" x="242.75" y="-232.7" font-family="Times,serif" font-size="14.00">&quot;собака&quot;</text>
<polyline fill="none" stroke="black" points="168,-225.5 317.5,-225.5"/>
<text xml:space="preserve" text-anchor="middle" x="242.75" y="-208.2" font-family="Times,serif" font-size="14.00">ptr = [0x7bb912de0280]</text>
<polyline fill="none" stroke="black" points="168,-201 317.5,-201"/>
<text xml:space="preserve" text-anchor="middle" x="242.75" y="-183.7" font-family="Times,serif" font-size="14.00">left = [(nil)]</text>
<polyline fill="none" stroke="black" points="168,-176.5 317.5,-176.5"/>
<text xml:space="preserve" text-anchor="middle" x="242.75" y="-159.2" font-family="Times,serif" font-size="14.00">right = [(nil)]</text>
</g>
<!-- node0x7bb912de0220&#45;&gt;node0x7bb912de0280 -->
<g id="edge3" class="edge">
<title>node0x7bb912de0220&#45;&gt;node0x7bb912de0280</title>
<path fill="none" stroke="black" d="M241.39,-303.37C241.57,-290.1 241.77,-275.55 241.95,-261.7"/>
<polygon fill="black" stroke="black" points="245.45,-261.85 242.08,-251.81 238.45,-261.76 245.45,-261.85"/>
<text xml:space="preserve" text-anchor="middle" x="252.68" y="-271.7" font-family="Times,serif" font-size="14.00">Нет</text>
</g>
<!-- node0x7bb912de02e0 -->
<g id="node6" class="node">
<title>node0x7bb912de02e0</title>
<path fill="#66ccff" stroke="black" d="M348.75,-152C348.75,-152 484.75,-152 484.75,-152 490.75,-152 496.75,-158 496.75,-164 496.75,-164 496.75,-238 496.75,-238 496.75,-244 490.75,-250 484.75,-250 484.75,-250 348.75,-250 348.75,-250 342.75,-250 336.75,-244 336.75,-238 336.75,-238 336.75,-164 336.75,-164 336.75,-158 342.75,-152 348.75,-152"/>
<text xml:space="preserve" text-anchor="middle" x="416.75" y="-232.7" font-family="Times,serif" font-size="14.00">&quot;занимается ИИ&quot;</text>
<polyline fill="none" stroke="black" points="336.75,-225.5 496.75,-225.5"/>
<text xml:space="preserve" text-anchor="middle" x="416.75" y="-208.2" font-family="Times,serif" font-size="14.00">ptr = [0x7bb912de02e0]</text>
<polyline fill="none" stroke="black" points="336.75,-201 496.75,-201"/>
<text xml:space="preserve" text-anchor="middle" x="416.75" y="-183.7" font-family="Times,serif" font-size="14.00">left = [0x7bb912de0310]</text>
<polyline fill="none" stroke="black" points="336.75,-176.5 496.75,-176.5"/>
<text xml:space="preserve" text-anchor="middle" x="416.75" y="-159.2" font-family="Times,serif" font-size="14.00">right = [0x7bb912de0340]</text>
</g>
<!-- node0x7bb912de02b0&#45;&gt;node0x7bb912de02e0 -->
<g id="edge5" class="edge">
<title>node0x7bb912de02b0&#45;&gt;node0x7bb912de02e0</title>
<path fill="none" stroke="black" d="M418.11,-303.37C417.93,-290.1 417.73,-275.55 417.55,-261.7"/>
<polygon fill="black" stroke="black" points="421.05,-261.76 417.42,-251.81 414.05,-261.85 421.05,-261.76"/>
<text xml:space="preserve" text-anchor="middle" x="425.68" y="-271.7" font-family="Times,serif" font-size="14.00">Да</text>
</g>
<!-- node0x7bb912de0370 -->
<g id="node9" class="node">
<title>node0x7bb912de0370</title>
<path fill="#66ccff" stroke="black" d="M527,-152C527,-152 652.5,-152 652.5,-152 658.5,-152 664.5,-158 664.5,-164 664.5,-164 664.5,-238 664.5,-238 664.5,-244 658.5,-250 652.5,-250 652.5,-250 527,-250 527,-250 521,-250 515,-244 515,-238 515,-238 515,-164 515,-164 515,-158 521,-152 527,-152"/>
<text xml:space="preserve" text-anchor="middle" x="589.75" y="-232.7" font-family="Times,serif" font-size="14.00">&quot;Вова&quot;</text>
<polyline fill="none" stroke="black" points="515,-225.5 664.5,-225.5"/>
<text xml:space="preserve" text-anchor="middle" x="589.75" y="-208.2" font-family="Times,serif" font-size="14.00">ptr = [0x7bb912de0370]</text>
<polyline fill="none" stroke="black" points="515,-201 664.5,-201"/>
<text xml:space="preserve" text-anchor="middle" x="589.75" y="-183.7" font-family="Times,serif" font-size="14.00">left = [(nil)]</text>
<polyline fill="none" stroke="black" points="515,-176.5 664.5,-176.5"/>
<text xml:space="preserve" text-anchor="middle" x="589.75" y="-159.2" font-family="Times,serif" font-size="14.00">right = [(nil)]</text>
</g>
<!-- node0x7bb912de02b0&#45;&gt;node0x7bb912de0370 -->
<g id="edge8" class="edge">
<title>node0x7bb912de02b0&#45;&gt;node0x7bb912de0370</title>
<path fill="none" stroke="black" d="M473.8,-303.37C490.49,-288.78 508.97,-272.62 526.18,-257.58"/>
<polygon fill="black" stroke="black" points="528.15,-260.5 533.37,-251.29 523.54,-255.23 528.15,-260.5"/>
<text xml:space="preserve" text-anchor="middle" x="520.25" y="-271.7" font-family="Times,serif" font-size="14.00">Нет</text>
</g>
<!-- node0x7bb912de0310 -->
<g id="node7" class="node">
<title>node0x7bb912de0310</title>
<path fill="#66ccff" stroke="black" d="M270,-0.5C270,-0.5 395.5,-0.5 395.5,-0.5 401.5,-0.5 407.5,-6.5 407.5,-12.5 407.5,-12.5 407.5,-86.5 407.5,-86.5 407.5,-92.5 401.5,-98.5 395.5,-98.5 395.5,-98.5 270,-98.5 270,-98.5 264,-98.5 258,-92.5 258,-86.5 258,-86.5 258,-12.5 258,-12.5 258,-6.5 264,-0.5 270,-0.5"/>
<text xml:space="preserve" text-anchor="middle" x="332.75" y="-81.2" font-family="Times,serif" font-size="14.00">&quot;Вадим&quot;</text>
<polyline fill="none" stroke="black" points="258,-74 407.5,-74"/>
<text xml:space="preserve" text-anchor="middle" x="332.75" y="-56.7" font-family="Times,serif" font-size="14.00">ptr = [0x7bb912de0310]</text>
<polyline fill="none" stroke="black" points="258,-49.5 407.5,-49.5"/>
<text xml:space="preserve" text-anchor="middle" x="332.75" y="-32.2" font-family="Times,serif" font-size="14.00">left = [(nil)]</text>
<polyline fill="none" stroke="black" points="258,-25 407.5,-25"/>
<text xml:space="preserve" text-anchor="middle" x="332.75" y="-7.7" font-family="Times,serif" font-size="14.00">right = [(nil)]</text>
</g>
<!-- node0x7bb912de02e0&#45;&gt;node0x7bb912de0310 -->
<g id="edge6" class="edge">
<title>node0x7bb912de02e0&#45;&gt;node0x7bb912de0310</title>
<path fill="none" stroke="black" d="M389.71,-151.87C381.95,-138.07 373.42,-122.88 365.37,-108.55"/>
<polygon fill="black" stroke="black" points="368.57,-107.11 360.63,-100.11 362.47,-110.54 368.57,-107.11"/>
<text xml:space="preserve" text-anchor="middle" x="385.14" y="-120.2" font-family="Times,serif" font-size="14.00">Да</text>
</g>
<!-- node0x7bb912de0340 -->
<g id="node8" class="node">
<title>node0x7bb912de0340</title>
<path fill="#66ccff" stroke="black" d="M438,-0.5C438,-0.5 563.5,-0.5 563.5,-0.5 569.5,-0.5 575.5,-6.5 575.5,-12.5 575.5,-12.5 575.5,-86.5 575.5,-86.5 575.5,-92.5 569.5,-98.5 563.5,-98.5 563.5,-98.5 438,-98.5 438,-98.5 432,-98.5 426,-92.5 426,-86.5 426,-86.5 426,-12.5 426,-12.5 426,-6.5 432,-0.5 438,-0.5"/>
<text xml:space="preserve" text-anchor="middle" x="500.75" y="-81.2" font-family="Times,serif" font-size="14.00">&quot;Василий&quot;</text>
<polyline fill="none" stroke="black" points="426,-74 575.5,-74"/>
<text xml:space="preserve" text-anchor="middle" x="500.75" y="-56.7" font-family="Times,serif" font-size="14.00">ptr = [0x7bb912de0340]</text>
<polyline fill="none" stroke="black" points="426,-49.5 575.5,-49.5"/>
<text xml:space="preserve" text-anchor="middle" x="500.75" y="-32.2" font-family="Times,serif" font-size="14.00">left = [(nil)]</text>
<polyline fill="none" stroke="black" points="426,-25 575.5,-25"/>
<text xml:space="preserve" text-anchor="middle" x="500.75" y="-7.7" font-family="Times,serif" font-size="14.00">right = [(nil)]</text>
</g>
<!-- node0x7bb912de02e0&#45;&gt;node0x7bb912de0340 -->
<g id="edge7" class="edge">
<title>node0x7bb912de02e0&#45;&gt;node0x7bb912de0340</title>
<path fill="none" stroke="black" d="M443.79,-151.87C451.55,-138.07 460.08,-122.88 468.13,-108.55"/>
<polygon fill="black" stroke="black" points="471.03,-110.54 472.87,-100.11 464.93,-107.11 471.03,-110.54"/>
<text xml:space="preserve" text-anchor="middle" x="472.14" y="-120.2" font-family="Times,serif" font-size="14.00">Нет</text>
</g>
</g>
</svg>
