<?xml version="1.0" encoding="UTF-8" standalone="no"?>
<!DOCTYPE svg PUBLIC "-//W3C//DTD SVG 1.1//EN"
 "http://www.w3.org/Graphics/SVG/1.1/DTD/svg11.dtd">
<!-- Generated by graphviz version 13.1.1 (20250719.2154)
 -->
<!-- Title: G Pages: 1 -->
<svg width="324pt" height="259pt"
 viewBox="0.00 0.00 324.00 259.00" xmlns="http://www.w3.org/2000/svg" xmlns:xlink="http://www.w3.org/1999/xlink">
<g id="graph0" class="graph" transform="scale(1 1) rotate(0) translate(4 254.5)">
<title>G</title>
<polygon fill="white" stroke="none" points="-4,4 -4,-254.5 319.75,-254.5 319.75,4 -4,4"/>
<!-- node0x7b34da1e02e0 -->
<g id="node1" class="node">
<title>node0x7b34da1e02e0</title>
<path fill="#66ccff" stroke="black" d="M89.75,-152C89.75,-152 225,-152 225,-152 231,-152 237,-158 237,-164 237,-164 237,-238 237,-238 237,-244 231,-250 225,-250 225,-250 89.75,-250 89.75,-250 83.75,-250 77.75,-244 77.75,-238 77.75,-238 77.75,-164 77.75,-164 77.75,-158 83.75,-152 89.75,-152"/>
<text xml:space="preserve" text-anchor="middle" x="157.38" y="-232.7" font-family="Times,serif" font-size="14.00">&quot;занимается ИИ&quot;</text>
<polyline fill="none" stroke="black" points="77.75,-225.5 237,-225.5"/>
<text xml:space="preserve" text-anchor="middle" x="157.38" y="-208.2" font-family="Times,serif" font-size="14.00">ptr = [0x7b34da1e02e0]</text>
<polyline fill="none" stroke="black" points="77.75,-201 237,-201"/>
<text xml:space="preserve" text-anchor="middle" x="157.38" y="-183.7" font-family="Times,serif" font-size="14.00">left = [0x7b34da1e0310]</text>
<polyline fill="none" stroke="black" points="77.75,-176.5 237,-176.5"/>
<text xml:space="preserve" text-anchor="middle" x="157.38" y="-159.2" font-family="Times,serif" font-size="14.00">right = [0x7b34da1e0340]</text>
</g>
<!-- node0x7b34da1e0310 -->
<g id="node2" class="node">
<title>node0x7b34da1e0310</title>
<path fill="#66ccff" stroke="black" d="M12,-0.5C12,-0.5 136.75,-0.5 136.75,-0.5 142.75,-0.5 148.75,-6.5 148.75,-12.5 148.75,-12.5 148.75,-86.5 148.75,-86.5 148.75,-92.5 142.75,-98.5 136.75,-98.5 136.75,-98.5 12,-98.5 12,-98.5 6,-98.5 0,-92.5 0,-86.5 0,-86.5 0,-12.5 0,-12.5 0,-6.5 6,-0.5 12,-0.5"/>
<text xml:space="preserve" text-anchor="middle" x="74.38" y="-81.2" font-family="Times,serif" font-size="14.00">&quot;Вадим&quot;</text>
<polyline fill="none" stroke="black" points="0,-74 148.75,-74"/>
<text xml:space="preserve" text-anchor="middle" x="74.38" y="-56.7" font-family="Times,serif" font-size="14.00">ptr = [0x7b34da1e0310]</text>
<polyline fill="none" stroke="black" points="0,-49.5 148.75,-49.5"/>
<text xml:space="preserve" text-anchor="middle" x="74.38" y="-32.2" font-family="Times,serif" font-size="14.00">left = [(nil)]</text>
<polyline fill="none" stroke="black" points="0,-25 148.75,-25"/>
<text xml:space="preserve" text-anchor="middle" x="74.38" y="-7.7" font-family="Times,serif" font-size="14.00">right = [(nil)]</text>
</g>
<!-- node0x7b34da1e02e0&#45;&gt;node0x7b34da1e0310 -->
<g id="edge1" class="edge">
<title>node0x7b34da1e02e0&#45;&gt;node0x7b34da1e0310</title>
<path fill="none" stroke="black" d="M130.66,-151.87C122.99,-138.07 114.56,-122.88 106.6,-108.55"/>
<polygon fill="black" stroke="black" points="109.83,-107.16 101.92,-100.11 103.71,-110.56 109.83,-107.16"/>
<text xml:space="preserve" text-anchor="middle" x="126.24" y="-120.2" font-family="Times,serif" font-size="14.00">Да</text>
</g>
<!-- node0x7b34da1e0340 -->
<g id="node3" class="node">
<title>node0x7b34da1e0340</title>
<path fill="#66ccff" stroke="black" d="M179,-0.5C179,-0.5 303.75,-0.5 303.75,-0.5 309.75,-0.5 315.75,-6.5 315.75,-12.5 315.75,-12.5 315.75,-86.5 315.75,-86.5 315.75,-92.5 309.75,-98.5 303.75,-98.5 303.75,-98.5 179,-98.5 179,-98.5 173,-98.5 167,-92.5 167,-86.5 167,-86.5 167,-12.5 167,-12.5 167,-6.5 173,-0.5 179,-0.5"/>
<text xml:space="preserve" text-anchor="middle" x="241.38" y="-81.2" font-family="Times,serif" font-size="14.00">&quot;Василий&quot;</text>
<polyline fill="none" stroke="black" points="167,-74 315.75,-74"/>
<text xml:space="preserve" text-anchor="middle" x="241.38" y="-56.7" font-family="Times,serif" font-size="14.00">ptr = [0x7b34da1e0340]</text>
<polyline fill="none" stroke="black" points="167,-49.5 315.75,-49.5"/>
<text xml:space="preserve" text-anchor="middle" x="241.38" y="-32.2" font-family="Times,serif" font-size="14.00">left = [(nil)]</text>
<polyline fill="none" stroke="black" points="167,-25 315.75,-25"/>
<text xml:space="preserve" text-anchor="middle" x="241.38" y="-7.7" font-family="Times,serif" font-size="14.00">right = [(nil)]</text>
</g>
<!-- node0x7b34da1e02e0&#45;&gt;node0x7b34da1e0340 -->
<g id="edge2" class="edge">
<title>node0x7b34da1e02e0&#45;&gt;node0x7b34da1e0340</title>
<path fill="none" stroke="black" d="M184.42,-151.87C192.17,-138.07 200.71,-122.88 208.76,-108.55"/>
<polygon fill="black" stroke="black" points="211.65,-110.54 213.5,-100.11 205.55,-107.11 211.65,-110.54"/>
<text xml:space="preserve" text-anchor="middle" x="212.77" y="-120.2" font-family="Times,serif" font-size="14.00">Нет</text>
</g>
</g>
</svg>
