<?xml version="1.0" encoding="UTF-8" standalone="no"?>
<!DOCTYPE svg PUBLIC "-//W3C//DTD SVG 1.1//EN"
 "http://www.w3.org/Graphics/SVG/1.1/DTD/svg11.dtd">
<!-- Generated by graphviz version 13.1.1 (20250719.2154)
 -->
<!-- Title: G Pages: 1 -->
<svg width="669pt" height="562pt"
 viewBox="0.00 0.00 669.00 562.00" xmlns="http://www.w3.org/2000/svg" xmlns:xlink="http://www.w3.org/1999/xlink">
<g id="graph0" class="graph" transform="scale(1 1) rotate(0) translate(4 557.5)">
<title>G</title>
<polygon fill="white" stroke="none" points="-4,4 -4,-557.5 664.75,-557.5 664.75,4 -4,4"/>
<!-- node0x7c217dbe01f0 -->
<g id="node1" class="node">
<title>node0x7c217dbe01f0</title>
<path fill="#66ccff" stroke="black" d="M259.75,-455C259.75,-455 395,-455 395,-455 401,-455 407,-461 407,-467 407,-467 407,-541 407,-541 407,-547 401,-553 395,-553 395,-553 259.75,-553 259.75,-553 253.75,-553 247.75,-547 247.75,-541 247.75,-541 247.75,-467 247.75,-467 247.75,-461 253.75,-455 259.75,-455"/>
<text xml:space="preserve" text-anchor="middle" x="327.38" y="-535.7" font-family="Times,serif" font-size="14.00">&quot;животное&quot;</text>
<polyline fill="none" stroke="black" points="247.75,-528.5 407,-528.5"/>
<text xml:space="preserve" text-anchor="middle" x="327.38" y="-511.2" font-family="Times,serif" font-size="14.00">ptr = [0x7c217dbe01f0]</text>
<polyline fill="none" stroke="black" points="247.75,-504 407,-504"/>
<text xml:space="preserve" text-anchor="middle" x="327.38" y="-486.7" font-family="Times,serif" font-size="14.00">left = [0x7c217dbe0220]</text>
<polyline fill="none" stroke="black" points="247.75,-479.5 407,-479.5"/>
<text xml:space="preserve" text-anchor="middle" x="327.38" y="-462.2" font-family="Times,serif" font-size="14.00">right = [0x7c217dbe02b0]</text>
</g>
<!-- node0x7c217dbe0220 -->
<g id="node2" class="node">
<title>node0x7c217dbe0220</title>
<path fill="#66ccff" stroke="black" d="M171.75,-303.5C171.75,-303.5 307,-303.5 307,-303.5 313,-303.5 319,-309.5 319,-315.5 319,-315.5 319,-389.5 319,-389.5 319,-395.5 313,-401.5 307,-401.5 307,-401.5 171.75,-401.5 171.75,-401.5 165.75,-401.5 159.75,-395.5 159.75,-389.5 159.75,-389.5 159.75,-315.5 159.75,-315.5 159.75,-309.5 165.75,-303.5 171.75,-303.5"/>
<text xml:space="preserve" text-anchor="middle" x="239.38" y="-384.2" font-family="Times,serif" font-size="14.00">&quot;ловит мышей&quot;</text>
<polyline fill="none" stroke="black" points="159.75,-377 319,-377"/>
<text xml:space="preserve" text-anchor="middle" x="239.38" y="-359.7" font-family="Times,serif" font-size="14.00">ptr = [0x7c217dbe0220]</text>
<polyline fill="none" stroke="black" points="159.75,-352.5 319,-352.5"/>
<text xml:space="preserve" text-anchor="middle" x="239.38" y="-335.2" font-family="Times,serif" font-size="14.00">left = [0x7c217dbe0250]</text>
<polyline fill="none" stroke="black" points="159.75,-328 319,-328"/>
<text xml:space="preserve" text-anchor="middle" x="239.38" y="-310.7" font-family="Times,serif" font-size="14.00">right = [0x7c217dbe0280]</text>
</g>
<!-- node0x7c217dbe01f0&#45;&gt;node0x7c217dbe0220 -->
<g id="edge1" class="edge">
<title>node0x7c217dbe01f0&#45;&gt;node0x7c217dbe0220</title>
<path fill="none" stroke="black" d="M299.05,-454.87C290.92,-441.07 281.98,-425.88 273.54,-411.55"/>
<polygon fill="black" stroke="black" points="276.66,-409.94 268.57,-403.1 270.63,-413.49 276.66,-409.94"/>
<text xml:space="preserve" text-anchor="middle" x="293.89" y="-423.2" font-family="Times,serif" font-size="14.00">Да</text>
</g>
<!-- node0x7c217dbe02b0 -->
<g id="node5" class="node">
<title>node0x7c217dbe02b0</title>
<path fill="#66ccff" stroke="black" d="M348.75,-303.5C348.75,-303.5 484,-303.5 484,-303.5 490,-303.5 496,-309.5 496,-315.5 496,-315.5 496,-389.5 496,-389.5 496,-395.5 490,-401.5 484,-401.5 484,-401.5 348.75,-401.5 348.75,-401.5 342.75,-401.5 336.75,-395.5 336.75,-389.5 336.75,-389.5 336.75,-315.5 336.75,-315.5 336.75,-309.5 342.75,-303.5 348.75,-303.5"/>
<text xml:space="preserve" text-anchor="middle" x="416.38" y="-384.2" font-family="Times,serif" font-size="14.00">&quot;любит много спать&quot;</text>
<polyline fill="none" stroke="black" points="336.75,-377 496,-377"/>
<text xml:space="preserve" text-anchor="middle" x="416.38" y="-359.7" font-family="Times,serif" font-size="14.00">ptr = [0x7c217dbe02b0]</text>
<polyline fill="none" stroke="black" points="336.75,-352.5 496,-352.5"/>
<text xml:space="preserve" text-anchor="middle" x="416.38" y="-335.2" font-family="Times,serif" font-size="14.00">left = [0x7c217dbe02e0]</text>
<polyline fill="none" stroke="black" points="336.75,-328 496,-328"/>
<text xml:space="preserve" text-anchor="middle" x="416.38" y="-310.7" font-family="Times,serif" font-size="14.00">right = [0x7c217dbe0370]</text>
</g>
<!-- node0x7c217dbe01f0&#45;&gt;node0x7c217dbe02b0 -->
<g id="edge4" class="edge">
<title>node0x7c217dbe01f0&#45;&gt;node0x7c217dbe02b0</title>
<path fill="none" stroke="black" d="M356.03,-454.87C364.24,-441.07 373.29,-425.88 381.82,-411.55"/>
<polygon fill="black" stroke="black" points="384.74,-413.48 386.85,-403.09 378.73,-409.89 384.74,-413.48"/>
<text xml:space="preserve" text-anchor="middle" x="385.42" y="-423.2" font-family="Times,serif" font-size="14.00">Нет</text>
</g>
<!-- node0x7c217dbe0250 -->
<g id="node3" class="node">
<title>node0x7c217dbe0250</title>
<path fill="#66ccff" stroke="black" d="M12,-152C12,-152 136.75,-152 136.75,-152 142.75,-152 148.75,-158 148.75,-164 148.75,-164 148.75,-238 148.75,-238 148.75,-244 142.75,-250 136.75,-250 136.75,-250 12,-250 12,-250 6,-250 0,-244 0,-238 0,-238 0,-164 0,-164 0,-158 6,-152 12,-152"/>
<text xml:space="preserve" text-anchor="middle" x="74.38" y="-232.7" font-family="Times,serif" font-size="14.00">&quot;Полторашка&quot;</text>
<polyline fill="none" stroke="black" points="0,-225.5 148.75,-225.5"/>
<text xml:space="preserve" text-anchor="middle" x="74.38" y="-208.2" font-family="Times,serif" font-size="14.00">ptr = [0x7c217dbe0250]</text>
<polyline fill="none" stroke="black" points="0,-201 148.75,-201"/>
<text xml:space="preserve" text-anchor="middle" x="74.38" y="-183.7" font-family="Times,serif" font-size="14.00">left = [(nil)]</text>
<polyline fill="none" stroke="black" points="0,-176.5 148.75,-176.5"/>
<text xml:space="preserve" text-anchor="middle" x="74.38" y="-159.2" font-family="Times,serif" font-size="14.00">right = [(nil)]</text>
</g>
<!-- node0x7c217dbe0220&#45;&gt;node0x7c217dbe0250 -->
<g id="edge2" class="edge">
<title>node0x7c217dbe0220&#45;&gt;node0x7c217dbe0250</title>
<path fill="none" stroke="black" d="M186.26,-303.37C170.3,-288.91 152.64,-272.91 136.17,-257.99"/>
<polygon fill="black" stroke="black" points="138.56,-255.43 128.8,-251.31 133.86,-260.62 138.56,-255.43"/>
<text xml:space="preserve" text-anchor="middle" x="169.7" y="-271.7" font-family="Times,serif" font-size="14.00">Да</text>
</g>
<!-- node0x7c217dbe0280 -->
<g id="node4" class="node">
<title>node0x7c217dbe0280</title>
<path fill="#66ccff" stroke="black" d="M179,-152C179,-152 303.75,-152 303.75,-152 309.75,-152 315.75,-158 315.75,-164 315.75,-164 315.75,-238 315.75,-238 315.75,-244 309.75,-250 303.75,-250 303.75,-250 179,-250 179,-250 173,-250 167,-244 167,-238 167,-238 167,-164 167,-164 167,-158 173,-152 179,-152"/>
<text xml:space="preserve" text-anchor="middle" x="241.38" y="-232.7" font-family="Times,serif" font-size="14.00">&quot;собака&quot;</text>
<polyline fill="none" stroke="black" points="167,-225.5 315.75,-225.5"/>
<text xml:space="preserve" text-anchor="middle" x="241.38" y="-208.2" font-family="Times,serif" font-size="14.00">ptr = [0x7c217dbe0280]</text>
<polyline fill="none" stroke="black" points="167,-201 315.75,-201"/>
<text xml:space="preserve" text-anchor="middle" x="241.38" y="-183.7" font-family="Times,serif" font-size="14.00">left = [(nil)]</text>
<polyline fill="none" stroke="black" points="167,-176.5 315.75,-176.5"/>
<text xml:space="preserve" text-anchor="middle" x="241.38" y="-159.2" font-family="Times,serif" font-size="14.00">right = [(nil)]</text>
</g>
<!-- node0x7c217dbe0220&#45;&gt;node0x7c217dbe0280 -->
<g id="edge3" class="edge">
<title>node0x7c217dbe0220&#45;&gt;node0x7c217dbe0280</title>
<path fill="none" stroke="black" d="M240.02,-303.37C240.2,-290.1 240.39,-275.55 240.58,-261.7"/>
<polygon fill="black" stroke="black" points="244.07,-261.85 240.71,-251.81 237.08,-261.76 244.07,-261.85"/>
<text xml:space="preserve" text-anchor="middle" x="251.31" y="-271.7" font-family="Times,serif" font-size="14.00">Нет</text>
</g>
<!-- node0x7c217dbe02e0 -->
<g id="node6" class="node">
<title>node0x7c217dbe02e0</title>
<path fill="#66ccff" stroke="black" d="M346.75,-152C346.75,-152 482,-152 482,-152 488,-152 494,-158 494,-164 494,-164 494,-238 494,-238 494,-244 488,-250 482,-250 482,-250 346.75,-250 346.75,-250 340.75,-250 334.75,-244 334.75,-238 334.75,-238 334.75,-164 334.75,-164 334.75,-158 340.75,-152 346.75,-152"/>
<text xml:space="preserve" text-anchor="middle" x="414.38" y="-232.7" font-family="Times,serif" font-size="14.00">&quot;занимается ИИ&quot;</text>
<polyline fill="none" stroke="black" points="334.75,-225.5 494,-225.5"/>
<text xml:space="preserve" text-anchor="middle" x="414.38" y="-208.2" font-family="Times,serif" font-size="14.00">ptr = [0x7c217dbe02e0]</text>
<polyline fill="none" stroke="black" points="334.75,-201 494,-201"/>
<text xml:space="preserve" text-anchor="middle" x="414.38" y="-183.7" font-family="Times,serif" font-size="14.00">left = [0x7c217dbe0310]</text>
<polyline fill="none" stroke="black" points="334.75,-176.5 494,-176.5"/>
<text xml:space="preserve" text-anchor="middle" x="414.38" y="-159.2" font-family="Times,serif" font-size="14.00">right = [0x7c217dbe0340]</text>
</g>
<!-- node0x7c217dbe02b0&#45;&gt;node0x7c217dbe02e0 -->
<g id="edge5" class="edge">
<title>node0x7c217dbe02b0&#45;&gt;node0x7c217dbe02e0</title>
<path fill="none" stroke="black" d="M415.73,-303.37C415.55,-290.1 415.36,-275.55 415.17,-261.7"/>
<polygon fill="black" stroke="black" points="418.67,-261.76 415.04,-251.81 411.68,-261.85 418.67,-261.76"/>
<text xml:space="preserve" text-anchor="middle" x="423.31" y="-271.7" font-family="Times,serif" font-size="14.00">Да</text>
</g>
<!-- node0x7c217dbe0370 -->
<g id="node9" class="node">
<title>node0x7c217dbe0370</title>
<path fill="#66ccff" stroke="black" d="M524,-152C524,-152 648.75,-152 648.75,-152 654.75,-152 660.75,-158 660.75,-164 660.75,-164 660.75,-238 660.75,-238 660.75,-244 654.75,-250 648.75,-250 648.75,-250 524,-250 524,-250 518,-250 512,-244 512,-238 512,-238 512,-164 512,-164 512,-158 518,-152 524,-152"/>
<text xml:space="preserve" text-anchor="middle" x="586.38" y="-232.7" font-family="Times,serif" font-size="14.00">&quot;Вова&quot;</text>
<polyline fill="none" stroke="black" points="512,-225.5 660.75,-225.5"/>
<text xml:space="preserve" text-anchor="middle" x="586.38" y="-208.2" font-family="Times,serif" font-size="14.00">ptr = [0x7c217dbe0370]</text>
<polyline fill="none" stroke="black" points="512,-201 660.75,-201"/>
<text xml:space="preserve" text-anchor="middle" x="586.38" y="-183.7" font-family="Times,serif" font-size="14.00">left = [(nil)]</text>
<polyline fill="none" stroke="black" points="512,-176.5 660.75,-176.5"/>
<text xml:space="preserve" text-anchor="middle" x="586.38" y="-159.2" font-family="Times,serif" font-size="14.00">right = [(nil)]</text>
</g>
<!-- node0x7c217dbe02b0&#45;&gt;node0x7c217dbe0370 -->
<g id="edge8" class="edge">
<title>node0x7c217dbe02b0&#45;&gt;node0x7c217dbe0370</title>
<path fill="none" stroke="black" d="M471.1,-303.37C487.7,-288.78 506.07,-272.62 523.18,-257.58"/>
<polygon fill="black" stroke="black" points="525.13,-260.52 530.32,-251.29 520.5,-255.27 525.13,-260.52"/>
<text xml:space="preserve" text-anchor="middle" x="517.35" y="-271.7" font-family="Times,serif" font-size="14.00">Нет</text>
</g>
<!-- node0x7c217dbe0310 -->
<g id="node7" class="node">
<title>node0x7c217dbe0310</title>
<path fill="#66ccff" stroke="black" d="M268,-0.5C268,-0.5 392.75,-0.5 392.75,-0.5 398.75,-0.5 404.75,-6.5 404.75,-12.5 404.75,-12.5 404.75,-86.5 404.75,-86.5 404.75,-92.5 398.75,-98.5 392.75,-98.5 392.75,-98.5 268,-98.5 268,-98.5 262,-98.5 256,-92.5 256,-86.5 256,-86.5 256,-12.5 256,-12.5 256,-6.5 262,-0.5 268,-0.5"/>
<text xml:space="preserve" text-anchor="middle" x="330.38" y="-81.2" font-family="Times,serif" font-size="14.00">&quot;Вадим&quot;</text>
<polyline fill="none" stroke="black" points="256,-74 404.75,-74"/>
<text xml:space="preserve" text-anchor="middle" x="330.38" y="-56.7" font-family="Times,serif" font-size="14.00">ptr = [0x7c217dbe0310]</text>
<polyline fill="none" stroke="black" points="256,-49.5 404.75,-49.5"/>
<text xml:space="preserve" text-anchor="middle" x="330.38" y="-32.2" font-family="Times,serif" font-size="14.00">left = [(nil)]</text>
<polyline fill="none" stroke="black" points="256,-25 404.75,-25"/>
<text xml:space="preserve" text-anchor="middle" x="330.38" y="-7.7" font-family="Times,serif" font-size="14.00">right = [(nil)]</text>
</g>
<!-- node0x7c217dbe02e0&#45;&gt;node0x7c217dbe0310 -->
<g id="edge6" class="edge">
<title>node0x7c217dbe02e0&#45;&gt;node0x7c217dbe0310</title>
<path fill="none" stroke="black" d="M387.33,-151.87C379.58,-138.07 371.04,-122.88 362.99,-108.55"/>
<polygon fill="black" stroke="black" points="366.2,-107.11 358.25,-100.11 360.1,-110.54 366.2,-107.11"/>
<text xml:space="preserve" text-anchor="middle" x="382.77" y="-120.2" font-family="Times,serif" font-size="14.00">Да</text>
</g>
<!-- node0x7c217dbe0340 -->
<g id="node8" class="node">
<title>node0x7c217dbe0340</title>
<path fill="#66ccff" stroke="black" d="M435,-0.5C435,-0.5 559.75,-0.5 559.75,-0.5 565.75,-0.5 571.75,-6.5 571.75,-12.5 571.75,-12.5 571.75,-86.5 571.75,-86.5 571.75,-92.5 565.75,-98.5 559.75,-98.5 559.75,-98.5 435,-98.5 435,-98.5 429,-98.5 423,-92.5 423,-86.5 423,-86.5 423,-12.5 423,-12.5 423,-6.5 429,-0.5 435,-0.5"/>
<text xml:space="preserve" text-anchor="middle" x="497.38" y="-81.2" font-family="Times,serif" font-size="14.00">&quot;Василий&quot;</text>
<polyline fill="none" stroke="black" points="423,-74 571.75,-74"/>
<text xml:space="preserve" text-anchor="middle" x="497.38" y="-56.7" font-family="Times,serif" font-size="14.00">ptr = [0x7c217dbe0340]</text>
<polyline fill="none" stroke="black" points="423,-49.5 571.75,-49.5"/>
<text xml:space="preserve" text-anchor="middle" x="497.38" y="-32.2" font-family="Times,serif" font-size="14.00">left = [(nil)]</text>
<polyline fill="none" stroke="black" points="423,-25 571.75,-25"/>
<text xml:space="preserve" text-anchor="middle" x="497.38" y="-7.7" font-family="Times,serif" font-size="14.00">right = [(nil)]</text>
</g>
<!-- node0x7c217dbe02e0&#45;&gt;node0x7c217dbe0340 -->
<g id="edge7" class="edge">
<title>node0x7c217dbe02e0&#45;&gt;node0x7c217dbe0340</title>
<path fill="none" stroke="black" d="M441.09,-151.87C448.76,-138.07 457.19,-122.88 465.15,-108.55"/>
<polygon fill="black" stroke="black" points="468.04,-110.56 469.83,-100.11 461.92,-107.16 468.04,-110.56"/>
<text xml:space="preserve" text-anchor="middle" x="469.24" y="-120.2" font-family="Times,serif" font-size="14.00">Нет</text>
</g>
</g>
</svg>
