<?xml version="1.0" encoding="UTF-8" standalone="no"?>
<!DOCTYPE svg PUBLIC "-//W3C//DTD SVG 1.1//EN"
 "http://www.w3.org/Graphics/SVG/1.1/DTD/svg11.dtd">
<!-- Generated by graphviz version 13.1.1 (20250719.2154)
 -->
<!-- Title: G Pages: 1 -->
<svg width="407pt" height="410pt"
 viewBox="0.00 0.00 407.00 410.00" xmlns="http://www.w3.org/2000/svg" xmlns:xlink="http://www.w3.org/1999/xlink">
<g id="graph0" class="graph" transform="scale(1 1) rotate(0) translate(4 406)">
<title>G</title>
<polygon fill="white" stroke="none" points="-4,4 -4,-406 402.5,-406 402.5,4 -4,4"/>
<!-- node0x7bdaf7de02b0 -->
<g id="node1" class="node">
<title>node0x7bdaf7de02b0</title>
<path fill="#66ccff" stroke="black" d="M173.75,-303.5C173.75,-303.5 306.75,-303.5 306.75,-303.5 312.75,-303.5 318.75,-309.5 318.75,-315.5 318.75,-315.5 318.75,-389.5 318.75,-389.5 318.75,-395.5 312.75,-401.5 306.75,-401.5 306.75,-401.5 173.75,-401.5 173.75,-401.5 167.75,-401.5 161.75,-395.5 161.75,-389.5 161.75,-389.5 161.75,-315.5 161.75,-315.5 161.75,-309.5 167.75,-303.5 173.75,-303.5"/>
<text xml:space="preserve" text-anchor="middle" x="240.25" y="-384.2" font-family="Times,serif" font-size="14.00">&quot;любит много спать&quot;</text>
<polyline fill="none" stroke="black" points="161.75,-377 318.75,-377"/>
<text xml:space="preserve" text-anchor="middle" x="240.25" y="-359.7" font-family="Times,serif" font-size="14.00">ptr = [0x7bdaf7de02b0]</text>
<polyline fill="none" stroke="black" points="161.75,-352.5 318.75,-352.5"/>
<text xml:space="preserve" text-anchor="middle" x="240.25" y="-335.2" font-family="Times,serif" font-size="14.00">left = [0x7bdaf7de02e0]</text>
<polyline fill="none" stroke="black" points="161.75,-328 318.75,-328"/>
<text xml:space="preserve" text-anchor="middle" x="240.25" y="-310.7" font-family="Times,serif" font-size="14.00">right = [0x7bdaf7de0370]</text>
</g>
<!-- node0x7bdaf7de02e0 -->
<g id="node2" class="node">
<title>node0x7bdaf7de02e0</title>
<path fill="#66ccff" stroke="black" d="M88.75,-152C88.75,-152 221.75,-152 221.75,-152 227.75,-152 233.75,-158 233.75,-164 233.75,-164 233.75,-238 233.75,-238 233.75,-244 227.75,-250 221.75,-250 221.75,-250 88.75,-250 88.75,-250 82.75,-250 76.75,-244 76.75,-238 76.75,-238 76.75,-164 76.75,-164 76.75,-158 82.75,-152 88.75,-152"/>
<text xml:space="preserve" text-anchor="middle" x="155.25" y="-232.7" font-family="Times,serif" font-size="14.00">&quot;занимается ИИ&quot;</text>
<polyline fill="none" stroke="black" points="76.75,-225.5 233.75,-225.5"/>
<text xml:space="preserve" text-anchor="middle" x="155.25" y="-208.2" font-family="Times,serif" font-size="14.00">ptr = [0x7bdaf7de02e0]</text>
<polyline fill="none" stroke="black" points="76.75,-201 233.75,-201"/>
<text xml:space="preserve" text-anchor="middle" x="155.25" y="-183.7" font-family="Times,serif" font-size="14.00">left = [0x7bdaf7de0310]</text>
<polyline fill="none" stroke="black" points="76.75,-176.5 233.75,-176.5"/>
<text xml:space="preserve" text-anchor="middle" x="155.25" y="-159.2" font-family="Times,serif" font-size="14.00">right = [0x7bdaf7de0340]</text>
</g>
<!-- node0x7bdaf7de02b0&#45;&gt;node0x7bdaf7de02e0 -->
<g id="edge1" class="edge">
<title>node0x7bdaf7de02b0&#45;&gt;node0x7bdaf7de02e0</title>
<path fill="none" stroke="black" d="M212.89,-303.37C205.04,-289.57 196.4,-274.38 188.25,-260.05"/>
<polygon fill="black" stroke="black" points="191.44,-258.57 183.45,-251.61 185.35,-262.03 191.44,-258.57"/>
<text xml:space="preserve" text-anchor="middle" x="208.17" y="-271.7" font-family="Times,serif" font-size="14.00">Да</text>
</g>
<!-- node0x7bdaf7de0370 -->
<g id="node5" class="node">
<title>node0x7bdaf7de0370</title>
<path fill="#66ccff" stroke="black" d="M264,-152C264,-152 386.5,-152 386.5,-152 392.5,-152 398.5,-158 398.5,-164 398.5,-164 398.5,-238 398.5,-238 398.5,-244 392.5,-250 386.5,-250 386.5,-250 264,-250 264,-250 258,-250 252,-244 252,-238 252,-238 252,-164 252,-164 252,-158 258,-152 264,-152"/>
<text xml:space="preserve" text-anchor="middle" x="325.25" y="-232.7" font-family="Times,serif" font-size="14.00">&quot;Вова&quot;</text>
<polyline fill="none" stroke="black" points="252,-225.5 398.5,-225.5"/>
<text xml:space="preserve" text-anchor="middle" x="325.25" y="-208.2" font-family="Times,serif" font-size="14.00">ptr = [0x7bdaf7de0370]</text>
<polyline fill="none" stroke="black" points="252,-201 398.5,-201"/>
<text xml:space="preserve" text-anchor="middle" x="325.25" y="-183.7" font-family="Times,serif" font-size="14.00">left = [(nil)]</text>
<polyline fill="none" stroke="black" points="252,-176.5 398.5,-176.5"/>
<text xml:space="preserve" text-anchor="middle" x="325.25" y="-159.2" font-family="Times,serif" font-size="14.00">right = [(nil)]</text>
</g>
<!-- node0x7bdaf7de02b0&#45;&gt;node0x7bdaf7de0370 -->
<g id="edge4" class="edge">
<title>node0x7bdaf7de02b0&#45;&gt;node0x7bdaf7de0370</title>
<path fill="none" stroke="black" d="M267.61,-303.37C275.46,-289.57 284.1,-274.38 292.25,-260.05"/>
<polygon fill="black" stroke="black" points="295.15,-262.03 297.05,-251.61 289.06,-258.57 295.15,-262.03"/>
<text xml:space="preserve" text-anchor="middle" x="296.17" y="-271.7" font-family="Times,serif" font-size="14.00">Нет</text>
</g>
<!-- node0x7bdaf7de0310 -->
<g id="node3" class="node">
<title>node0x7bdaf7de0310</title>
<path fill="#66ccff" stroke="black" d="M12,-0.5C12,-0.5 134.5,-0.5 134.5,-0.5 140.5,-0.5 146.5,-6.5 146.5,-12.5 146.5,-12.5 146.5,-86.5 146.5,-86.5 146.5,-92.5 140.5,-98.5 134.5,-98.5 134.5,-98.5 12,-98.5 12,-98.5 6,-98.5 0,-92.5 0,-86.5 0,-86.5 0,-12.5 0,-12.5 0,-6.5 6,-0.5 12,-0.5"/>
<text xml:space="preserve" text-anchor="middle" x="73.25" y="-81.2" font-family="Times,serif" font-size="14.00">&quot;Вадим&quot;</text>
<polyline fill="none" stroke="black" points="0,-74 146.5,-74"/>
<text xml:space="preserve" text-anchor="middle" x="73.25" y="-56.7" font-family="Times,serif" font-size="14.00">ptr = [0x7bdaf7de0310]</text>
<polyline fill="none" stroke="black" points="0,-49.5 146.5,-49.5"/>
<text xml:space="preserve" text-anchor="middle" x="73.25" y="-32.2" font-family="Times,serif" font-size="14.00">left = [(nil)]</text>
<polyline fill="none" stroke="black" points="0,-25 146.5,-25"/>
<text xml:space="preserve" text-anchor="middle" x="73.25" y="-7.7" font-family="Times,serif" font-size="14.00">right = [(nil)]</text>
</g>
<!-- node0x7bdaf7de02e0&#45;&gt;node0x7bdaf7de0310 -->
<g id="edge2" class="edge">
<title>node0x7bdaf7de02e0&#45;&gt;node0x7bdaf7de0310</title>
<path fill="none" stroke="black" d="M128.85,-151.87C121.28,-138.07 112.95,-122.88 105.09,-108.55"/>
<polygon fill="black" stroke="black" points="108.34,-107.2 100.47,-100.12 102.21,-110.57 108.34,-107.2"/>
<text xml:space="preserve" text-anchor="middle" x="124.58" y="-120.2" font-family="Times,serif" font-size="14.00">Да</text>
</g>
<!-- node0x7bdaf7de0340 -->
<g id="node4" class="node">
<title>node0x7bdaf7de0340</title>
<path fill="#66ccff" stroke="black" d="M177,-0.5C177,-0.5 299.5,-0.5 299.5,-0.5 305.5,-0.5 311.5,-6.5 311.5,-12.5 311.5,-12.5 311.5,-86.5 311.5,-86.5 311.5,-92.5 305.5,-98.5 299.5,-98.5 299.5,-98.5 177,-98.5 177,-98.5 171,-98.5 165,-92.5 165,-86.5 165,-86.5 165,-12.5 165,-12.5 165,-6.5 171,-0.5 177,-0.5"/>
<text xml:space="preserve" text-anchor="middle" x="238.25" y="-81.2" font-family="Times,serif" font-size="14.00">&quot;Василий&quot;</text>
<polyline fill="none" stroke="black" points="165,-74 311.5,-74"/>
<text xml:space="preserve" text-anchor="middle" x="238.25" y="-56.7" font-family="Times,serif" font-size="14.00">ptr = [0x7bdaf7de0340]</text>
<polyline fill="none" stroke="black" points="165,-49.5 311.5,-49.5"/>
<text xml:space="preserve" text-anchor="middle" x="238.25" y="-32.2" font-family="Times,serif" font-size="14.00">left = [(nil)]</text>
<polyline fill="none" stroke="black" points="165,-25 311.5,-25"/>
<text xml:space="preserve" text-anchor="middle" x="238.25" y="-7.7" font-family="Times,serif" font-size="14.00">right = [(nil)]</text>
</g>
<!-- node0x7bdaf7de02e0&#45;&gt;node0x7bdaf7de0340 -->
<g id="edge3" class="edge">
<title>node0x7bdaf7de02e0&#45;&gt;node0x7bdaf7de0340</title>
<path fill="none" stroke="black" d="M181.97,-151.87C189.63,-138.07 198.07,-122.88 206.02,-108.55"/>
<polygon fill="black" stroke="black" points="208.91,-110.56 210.7,-100.11 202.79,-107.16 208.91,-110.56"/>
<text xml:space="preserve" text-anchor="middle" x="210.11" y="-120.2" font-family="Times,serif" font-size="14.00">Нет</text>
</g>
</g>
</svg>
