<?xml version="1.0" encoding="UTF-8" standalone="no"?>
<!DOCTYPE svg PUBLIC "-//W3C//DTD SVG 1.1//EN"
 "http://www.w3.org/Graphics/SVG/1.1/DTD/svg11.dtd">
<!-- Generated by graphviz version 13.1.1 (20250719.2154)
 -->
<!-- Title: G Pages: 1 -->
<svg width="661pt" height="562pt"
 viewBox="0.00 0.00 661.00 562.00" xmlns="http://www.w3.org/2000/svg" xmlns:xlink="http://www.w3.org/1999/xlink">
<g id="graph0" class="graph" transform="scale(1 1) rotate(0) translate(4 557.5)">
<title>G</title>
<polygon fill="white" stroke="none" points="-4,4 -4,-557.5 656.5,-557.5 656.5,4 -4,4"/>
<!-- node0x7bdaf7de01f0 -->
<g id="node1" class="node">
<title>node0x7bdaf7de01f0</title>
<path fill="#66ccff" stroke="black" d="M256.75,-455C256.75,-455 389.75,-455 389.75,-455 395.75,-455 401.75,-461 401.75,-467 401.75,-467 401.75,-541 401.75,-541 401.75,-547 395.75,-553 389.75,-553 389.75,-553 256.75,-553 256.75,-553 250.75,-553 244.75,-547 244.75,-541 244.75,-541 244.75,-467 244.75,-467 244.75,-461 250.75,-455 256.75,-455"/>
<text xml:space="preserve" text-anchor="middle" x="323.25" y="-535.7" font-family="Times,serif" font-size="14.00">&quot;животное&quot;</text>
<polyline fill="none" stroke="black" points="244.75,-528.5 401.75,-528.5"/>
<text xml:space="preserve" text-anchor="middle" x="323.25" y="-511.2" font-family="Times,serif" font-size="14.00">ptr = [0x7bdaf7de01f0]</text>
<polyline fill="none" stroke="black" points="244.75,-504 401.75,-504"/>
<text xml:space="preserve" text-anchor="middle" x="323.25" y="-486.7" font-family="Times,serif" font-size="14.00">left = [0x7bdaf7de0220]</text>
<polyline fill="none" stroke="black" points="244.75,-479.5 401.75,-479.5"/>
<text xml:space="preserve" text-anchor="middle" x="323.25" y="-462.2" font-family="Times,serif" font-size="14.00">right = [0x7bdaf7de02b0]</text>
</g>
<!-- node0x7bdaf7de0220 -->
<g id="node2" class="node">
<title>node0x7bdaf7de0220</title>
<path fill="#66ccff" stroke="black" d="M169.75,-303.5C169.75,-303.5 302.75,-303.5 302.75,-303.5 308.75,-303.5 314.75,-309.5 314.75,-315.5 314.75,-315.5 314.75,-389.5 314.75,-389.5 314.75,-395.5 308.75,-401.5 302.75,-401.5 302.75,-401.5 169.75,-401.5 169.75,-401.5 163.75,-401.5 157.75,-395.5 157.75,-389.5 157.75,-389.5 157.75,-315.5 157.75,-315.5 157.75,-309.5 163.75,-303.5 169.75,-303.5"/>
<text xml:space="preserve" text-anchor="middle" x="236.25" y="-384.2" font-family="Times,serif" font-size="14.00">&quot;ловит мышей&quot;</text>
<polyline fill="none" stroke="black" points="157.75,-377 314.75,-377"/>
<text xml:space="preserve" text-anchor="middle" x="236.25" y="-359.7" font-family="Times,serif" font-size="14.00">ptr = [0x7bdaf7de0220]</text>
<polyline fill="none" stroke="black" points="157.75,-352.5 314.75,-352.5"/>
<text xml:space="preserve" text-anchor="middle" x="236.25" y="-335.2" font-family="Times,serif" font-size="14.00">left = [0x7bdaf7de0250]</text>
<polyline fill="none" stroke="black" points="157.75,-328 314.75,-328"/>
<text xml:space="preserve" text-anchor="middle" x="236.25" y="-310.7" font-family="Times,serif" font-size="14.00">right = [0x7bdaf7de0280]</text>
</g>
<!-- node0x7bdaf7de01f0&#45;&gt;node0x7bdaf7de0220 -->
<g id="edge1" class="edge">
<title>node0x7bdaf7de01f0&#45;&gt;node0x7bdaf7de0220</title>
<path fill="none" stroke="black" d="M295.24,-454.87C287.21,-441.07 278.37,-425.88 270.03,-411.55"/>
<polygon fill="black" stroke="black" points="273.17,-409.98 265.11,-403.1 267.12,-413.5 273.17,-409.98"/>
<text xml:space="preserve" text-anchor="middle" x="290.23" y="-423.2" font-family="Times,serif" font-size="14.00">Да</text>
</g>
<!-- node0x7bdaf7de02b0 -->
<g id="node5" class="node">
<title>node0x7bdaf7de02b0</title>
<path fill="#66ccff" stroke="black" d="M344.75,-303.5C344.75,-303.5 477.75,-303.5 477.75,-303.5 483.75,-303.5 489.75,-309.5 489.75,-315.5 489.75,-315.5 489.75,-389.5 489.75,-389.5 489.75,-395.5 483.75,-401.5 477.75,-401.5 477.75,-401.5 344.75,-401.5 344.75,-401.5 338.75,-401.5 332.75,-395.5 332.75,-389.5 332.75,-389.5 332.75,-315.5 332.75,-315.5 332.75,-309.5 338.75,-303.5 344.75,-303.5"/>
<text xml:space="preserve" text-anchor="middle" x="411.25" y="-384.2" font-family="Times,serif" font-size="14.00">&quot;любит много спать&quot;</text>
<polyline fill="none" stroke="black" points="332.75,-377 489.75,-377"/>
<text xml:space="preserve" text-anchor="middle" x="411.25" y="-359.7" font-family="Times,serif" font-size="14.00">ptr = [0x7bdaf7de02b0]</text>
<polyline fill="none" stroke="black" points="332.75,-352.5 489.75,-352.5"/>
<text xml:space="preserve" text-anchor="middle" x="411.25" y="-335.2" font-family="Times,serif" font-size="14.00">left = [0x7bdaf7de02e0]</text>
<polyline fill="none" stroke="black" points="332.75,-328 489.75,-328"/>
<text xml:space="preserve" text-anchor="middle" x="411.25" y="-310.7" font-family="Times,serif" font-size="14.00">right = [0x7bdaf7de0370]</text>
</g>
<!-- node0x7bdaf7de01f0&#45;&gt;node0x7bdaf7de02b0 -->
<g id="edge4" class="edge">
<title>node0x7bdaf7de01f0&#45;&gt;node0x7bdaf7de02b0</title>
<path fill="none" stroke="black" d="M351.58,-454.87C359.7,-441.07 368.65,-425.88 377.08,-411.55"/>
<polygon fill="black" stroke="black" points="380,-413.49 382.06,-403.1 373.97,-409.94 380,-413.49"/>
<text xml:space="preserve" text-anchor="middle" x="380.76" y="-423.2" font-family="Times,serif" font-size="14.00">Нет</text>
</g>
<!-- node0x7bdaf7de0250 -->
<g id="node3" class="node">
<title>node0x7bdaf7de0250</title>
<path fill="#66ccff" stroke="black" d="M12,-152C12,-152 134.5,-152 134.5,-152 140.5,-152 146.5,-158 146.5,-164 146.5,-164 146.5,-238 146.5,-238 146.5,-244 140.5,-250 134.5,-250 134.5,-250 12,-250 12,-250 6,-250 0,-244 0,-238 0,-238 0,-164 0,-164 0,-158 6,-152 12,-152"/>
<text xml:space="preserve" text-anchor="middle" x="73.25" y="-232.7" font-family="Times,serif" font-size="14.00">&quot;Полторашка&quot;</text>
<polyline fill="none" stroke="black" points="0,-225.5 146.5,-225.5"/>
<text xml:space="preserve" text-anchor="middle" x="73.25" y="-208.2" font-family="Times,serif" font-size="14.00">ptr = [0x7bdaf7de0250]</text>
<polyline fill="none" stroke="black" points="0,-201 146.5,-201"/>
<text xml:space="preserve" text-anchor="middle" x="73.25" y="-183.7" font-family="Times,serif" font-size="14.00">left = [(nil)]</text>
<polyline fill="none" stroke="black" points="0,-176.5 146.5,-176.5"/>
<text xml:space="preserve" text-anchor="middle" x="73.25" y="-159.2" font-family="Times,serif" font-size="14.00">right = [(nil)]</text>
</g>
<!-- node0x7bdaf7de0220&#45;&gt;node0x7bdaf7de0250 -->
<g id="edge2" class="edge">
<title>node0x7bdaf7de0220&#45;&gt;node0x7bdaf7de0250</title>
<path fill="none" stroke="black" d="M183.78,-303.37C168.01,-288.91 150.57,-272.91 134.29,-257.99"/>
<polygon fill="black" stroke="black" points="136.75,-255.49 127.02,-251.31 132.02,-260.65 136.75,-255.49"/>
<text xml:space="preserve" text-anchor="middle" x="167.51" y="-271.7" font-family="Times,serif" font-size="14.00">Да</text>
</g>
<!-- node0x7bdaf7de0280 -->
<g id="node4" class="node">
<title>node0x7bdaf7de0280</title>
<path fill="#66ccff" stroke="black" d="M177,-152C177,-152 299.5,-152 299.5,-152 305.5,-152 311.5,-158 311.5,-164 311.5,-164 311.5,-238 311.5,-238 311.5,-244 305.5,-250 299.5,-250 299.5,-250 177,-250 177,-250 171,-250 165,-244 165,-238 165,-238 165,-164 165,-164 165,-158 171,-152 177,-152"/>
<text xml:space="preserve" text-anchor="middle" x="238.25" y="-232.7" font-family="Times,serif" font-size="14.00">&quot;собака&quot;</text>
<polyline fill="none" stroke="black" points="165,-225.5 311.5,-225.5"/>
<text xml:space="preserve" text-anchor="middle" x="238.25" y="-208.2" font-family="Times,serif" font-size="14.00">ptr = [0x7bdaf7de0280]</text>
<polyline fill="none" stroke="black" points="165,-201 311.5,-201"/>
<text xml:space="preserve" text-anchor="middle" x="238.25" y="-183.7" font-family="Times,serif" font-size="14.00">left = [(nil)]</text>
<polyline fill="none" stroke="black" points="165,-176.5 311.5,-176.5"/>
<text xml:space="preserve" text-anchor="middle" x="238.25" y="-159.2" font-family="Times,serif" font-size="14.00">right = [(nil)]</text>
</g>
<!-- node0x7bdaf7de0220&#45;&gt;node0x7bdaf7de0280 -->
<g id="edge3" class="edge">
<title>node0x7bdaf7de0220&#45;&gt;node0x7bdaf7de0280</title>
<path fill="none" stroke="black" d="M236.89,-303.37C237.07,-290.1 237.27,-275.55 237.45,-261.7"/>
<polygon fill="black" stroke="black" points="240.95,-261.85 237.58,-251.81 233.95,-261.76 240.95,-261.85"/>
<text xml:space="preserve" text-anchor="middle" x="248.18" y="-271.7" font-family="Times,serif" font-size="14.00">Нет</text>
</g>
<!-- node0x7bdaf7de02e0 -->
<g id="node6" class="node">
<title>node0x7bdaf7de02e0</title>
<path fill="#66ccff" stroke="black" d="M342.75,-152C342.75,-152 475.75,-152 475.75,-152 481.75,-152 487.75,-158 487.75,-164 487.75,-164 487.75,-238 487.75,-238 487.75,-244 481.75,-250 475.75,-250 475.75,-250 342.75,-250 342.75,-250 336.75,-250 330.75,-244 330.75,-238 330.75,-238 330.75,-164 330.75,-164 330.75,-158 336.75,-152 342.75,-152"/>
<text xml:space="preserve" text-anchor="middle" x="409.25" y="-232.7" font-family="Times,serif" font-size="14.00">&quot;занимается ИИ&quot;</text>
<polyline fill="none" stroke="black" points="330.75,-225.5 487.75,-225.5"/>
<text xml:space="preserve" text-anchor="middle" x="409.25" y="-208.2" font-family="Times,serif" font-size="14.00">ptr = [0x7bdaf7de02e0]</text>
<polyline fill="none" stroke="black" points="330.75,-201 487.75,-201"/>
<text xml:space="preserve" text-anchor="middle" x="409.25" y="-183.7" font-family="Times,serif" font-size="14.00">left = [0x7bdaf7de0310]</text>
<polyline fill="none" stroke="black" points="330.75,-176.5 487.75,-176.5"/>
<text xml:space="preserve" text-anchor="middle" x="409.25" y="-159.2" font-family="Times,serif" font-size="14.00">right = [0x7bdaf7de0340]</text>
</g>
<!-- node0x7bdaf7de02b0&#45;&gt;node0x7bdaf7de02e0 -->
<g id="edge5" class="edge">
<title>node0x7bdaf7de02b0&#45;&gt;node0x7bdaf7de02e0</title>
<path fill="none" stroke="black" d="M410.61,-303.37C410.43,-290.1 410.23,-275.55 410.05,-261.7"/>
<polygon fill="black" stroke="black" points="413.55,-261.76 409.92,-251.81 406.55,-261.85 413.55,-261.76"/>
<text xml:space="preserve" text-anchor="middle" x="418.18" y="-271.7" font-family="Times,serif" font-size="14.00">Да</text>
</g>
<!-- node0x7bdaf7de0370 -->
<g id="node9" class="node">
<title>node0x7bdaf7de0370</title>
<path fill="#66ccff" stroke="black" d="M518,-152C518,-152 640.5,-152 640.5,-152 646.5,-152 652.5,-158 652.5,-164 652.5,-164 652.5,-238 652.5,-238 652.5,-244 646.5,-250 640.5,-250 640.5,-250 518,-250 518,-250 512,-250 506,-244 506,-238 506,-238 506,-164 506,-164 506,-158 512,-152 518,-152"/>
<text xml:space="preserve" text-anchor="middle" x="579.25" y="-232.7" font-family="Times,serif" font-size="14.00">&quot;Вова&quot;</text>
<polyline fill="none" stroke="black" points="506,-225.5 652.5,-225.5"/>
<text xml:space="preserve" text-anchor="middle" x="579.25" y="-208.2" font-family="Times,serif" font-size="14.00">ptr = [0x7bdaf7de0370]</text>
<polyline fill="none" stroke="black" points="506,-201 652.5,-201"/>
<text xml:space="preserve" text-anchor="middle" x="579.25" y="-183.7" font-family="Times,serif" font-size="14.00">left = [(nil)]</text>
<polyline fill="none" stroke="black" points="506,-176.5 652.5,-176.5"/>
<text xml:space="preserve" text-anchor="middle" x="579.25" y="-159.2" font-family="Times,serif" font-size="14.00">right = [(nil)]</text>
</g>
<!-- node0x7bdaf7de02b0&#45;&gt;node0x7bdaf7de0370 -->
<g id="edge8" class="edge">
<title>node0x7bdaf7de02b0&#45;&gt;node0x7bdaf7de0370</title>
<path fill="none" stroke="black" d="M465.33,-303.37C481.74,-288.78 499.89,-272.62 516.8,-257.58"/>
<polygon fill="black" stroke="black" points="518.71,-260.56 523.85,-251.3 514.05,-255.33 518.71,-260.56"/>
<text xml:space="preserve" text-anchor="middle" x="511.16" y="-271.7" font-family="Times,serif" font-size="14.00">Нет</text>
</g>
<!-- node0x7bdaf7de0310 -->
<g id="node7" class="node">
<title>node0x7bdaf7de0310</title>
<path fill="#66ccff" stroke="black" d="M265,-0.5C265,-0.5 387.5,-0.5 387.5,-0.5 393.5,-0.5 399.5,-6.5 399.5,-12.5 399.5,-12.5 399.5,-86.5 399.5,-86.5 399.5,-92.5 393.5,-98.5 387.5,-98.5 387.5,-98.5 265,-98.5 265,-98.5 259,-98.5 253,-92.5 253,-86.5 253,-86.5 253,-12.5 253,-12.5 253,-6.5 259,-0.5 265,-0.5"/>
<text xml:space="preserve" text-anchor="middle" x="326.25" y="-81.2" font-family="Times,serif" font-size="14.00">&quot;Вадим&quot;</text>
<polyline fill="none" stroke="black" points="253,-74 399.5,-74"/>
<text xml:space="preserve" text-anchor="middle" x="326.25" y="-56.7" font-family="Times,serif" font-size="14.00">ptr = [0x7bdaf7de0310]</text>
<polyline fill="none" stroke="black" points="253,-49.5 399.5,-49.5"/>
<text xml:space="preserve" text-anchor="middle" x="326.25" y="-32.2" font-family="Times,serif" font-size="14.00">left = [(nil)]</text>
<polyline fill="none" stroke="black" points="253,-25 399.5,-25"/>
<text xml:space="preserve" text-anchor="middle" x="326.25" y="-7.7" font-family="Times,serif" font-size="14.00">right = [(nil)]</text>
</g>
<!-- node0x7bdaf7de02e0&#45;&gt;node0x7bdaf7de0310 -->
<g id="edge6" class="edge">
<title>node0x7bdaf7de02e0&#45;&gt;node0x7bdaf7de0310</title>
<path fill="none" stroke="black" d="M382.53,-151.87C374.87,-138.07 366.43,-122.88 358.48,-108.55"/>
<polygon fill="black" stroke="black" points="361.71,-107.16 353.8,-100.11 355.59,-110.56 361.71,-107.16"/>
<text xml:space="preserve" text-anchor="middle" x="378.11" y="-120.2" font-family="Times,serif" font-size="14.00">Да</text>
</g>
<!-- node0x7bdaf7de0340 -->
<g id="node8" class="node">
<title>node0x7bdaf7de0340</title>
<path fill="#66ccff" stroke="black" d="M430,-0.5C430,-0.5 552.5,-0.5 552.5,-0.5 558.5,-0.5 564.5,-6.5 564.5,-12.5 564.5,-12.5 564.5,-86.5 564.5,-86.5 564.5,-92.5 558.5,-98.5 552.5,-98.5 552.5,-98.5 430,-98.5 430,-98.5 424,-98.5 418,-92.5 418,-86.5 418,-86.5 418,-12.5 418,-12.5 418,-6.5 424,-0.5 430,-0.5"/>
<text xml:space="preserve" text-anchor="middle" x="491.25" y="-81.2" font-family="Times,serif" font-size="14.00">&quot;Василий&quot;</text>
<polyline fill="none" stroke="black" points="418,-74 564.5,-74"/>
<text xml:space="preserve" text-anchor="middle" x="491.25" y="-56.7" font-family="Times,serif" font-size="14.00">ptr = [0x7bdaf7de0340]</text>
<polyline fill="none" stroke="black" points="418,-49.5 564.5,-49.5"/>
<text xml:space="preserve" text-anchor="middle" x="491.25" y="-32.2" font-family="Times,serif" font-size="14.00">left = [(nil)]</text>
<polyline fill="none" stroke="black" points="418,-25 564.5,-25"/>
<text xml:space="preserve" text-anchor="middle" x="491.25" y="-7.7" font-family="Times,serif" font-size="14.00">right = [(nil)]</text>
</g>
<!-- node0x7bdaf7de02e0&#45;&gt;node0x7bdaf7de0340 -->
<g id="edge7" class="edge">
<title>node0x7bdaf7de02e0&#45;&gt;node0x7bdaf7de0340</title>
<path fill="none" stroke="black" d="M435.65,-151.87C443.22,-138.07 451.55,-122.88 459.41,-108.55"/>
<polygon fill="black" stroke="black" points="462.29,-110.57 464.03,-100.12 456.16,-107.2 462.29,-110.57"/>
<text xml:space="preserve" text-anchor="middle" x="463.58" y="-120.2" font-family="Times,serif" font-size="14.00">Нет</text>
</g>
</g>
</svg>
